<?xml version="1.0" encoding="utf-8" standalone="no"?>
<!DOCTYPE svg PUBLIC "-//W3C//DTD SVG 1.1//EN"
  "http://www.w3.org/Graphics/SVG/1.1/DTD/svg11.dtd">
<svg xmlns:xlink="http://www.w3.org/1999/xlink" width="576pt" height="288pt" viewBox="0 0 576 288" xmlns="http://www.w3.org/2000/svg" version="1.1">
 <metadata>
  <rdf:RDF xmlns:dc="http://purl.org/dc/elements/1.1/" xmlns:cc="http://creativecommons.org/ns#" xmlns:rdf="http://www.w3.org/1999/02/22-rdf-syntax-ns#">
   <cc:Work>
    <dc:type rdf:resource="http://purl.org/dc/dcmitype/StillImage"/>
    <dc:date>2025-12-12T19:13:04.966875</dc:date>
    <dc:format>image/svg+xml</dc:format>
    <dc:creator>
     <cc:Agent>
      <dc:title>Matplotlib v3.10.7, https://matplotlib.org/</dc:title>
     </cc:Agent>
    </dc:creator>
   </cc:Work>
  </rdf:RDF>
 </metadata>
 <defs>
  <style type="text/css">*{stroke-linejoin: round; stroke-linecap: butt}</style>
 </defs>
 <g id="figure_1">
  <g id="patch_1">
   <path d="M 0 288 
L 576 288 
L 576 0 
L 0 0 
L 0 288 
z
" style="fill: none"/>
  </g>
  <g id="axes_1">
   <g id="patch_2">
    <path d="M 57.26 246.04 
L 559.791819 246.04 
L 559.791819 10.8 
L 57.26 10.8 
L 57.26 246.04 
z
" style="fill: none"/>
   </g>
   <g id="matplotlib.axis_1">
    <g id="xtick_1">
     <g id="line2d_1">
      <path d="M 122.019943 246.04 
L 122.019943 10.8 
" clip-path="url(#p1b9ffcbd3d)" style="fill: none; stroke: #b0b0b0; stroke-width: 0.8; stroke-linecap: square"/>
     </g>
     <g id="line2d_2">
      <defs>
       <path id="m6788339c57" d="M 0 0 
L 0 3.5 
" style="stroke: #000000; stroke-width: 0.8"/>
      </defs>
      <g>
       <use xlink:href="#m6788339c57" x="122.019943" y="246.04" style="stroke: #000000; stroke-width: 0.8"/>
      </g>
     </g>
     <g id="text_1">
      <!-- 5 -->
      <g transform="translate(118.838693 260.638438) scale(0.1 -0.1)">
       <defs>
        <path id="DejaVuSans-35" d="M 691 4666 
L 3169 4666 
L 3169 4134 
L 1269 4134 
L 1269 2991 
Q 1406 3038 1543 3061 
Q 1681 3084 1819 3084 
Q 2600 3084 3056 2656 
Q 3513 2228 3513 1497 
Q 3513 744 3044 326 
Q 2575 -91 1722 -91 
Q 1428 -91 1123 -41 
Q 819 9 494 109 
L 494 744 
Q 775 591 1075 516 
Q 1375 441 1709 441 
Q 2250 441 2565 725 
Q 2881 1009 2881 1497 
Q 2881 1984 2565 2268 
Q 2250 2553 1709 2553 
Q 1456 2553 1204 2497 
Q 953 2441 691 2322 
L 691 4666 
z
" transform="scale(0.015625)"/>
       </defs>
       <use xlink:href="#DejaVuSans-35"/>
      </g>
     </g>
    </g>
    <g id="xtick_2">
     <g id="line2d_3">
      <path d="M 231.211922 246.04 
L 231.211922 10.8 
" clip-path="url(#p1b9ffcbd3d)" style="fill: none; stroke: #b0b0b0; stroke-width: 0.8; stroke-linecap: square"/>
     </g>
     <g id="line2d_4">
      <g>
       <use xlink:href="#m6788339c57" x="231.211922" y="246.04" style="stroke: #000000; stroke-width: 0.8"/>
      </g>
     </g>
     <g id="text_2">
      <!-- 10 -->
      <g transform="translate(224.849422 260.638438) scale(0.1 -0.1)">
       <defs>
        <path id="DejaVuSans-31" d="M 794 531 
L 1825 531 
L 1825 4091 
L 703 3866 
L 703 4441 
L 1819 4666 
L 2450 4666 
L 2450 531 
L 3481 531 
L 3481 0 
L 794 0 
L 794 531 
z
" transform="scale(0.015625)"/>
        <path id="DejaVuSans-30" d="M 2034 4250 
Q 1547 4250 1301 3770 
Q 1056 3291 1056 2328 
Q 1056 1369 1301 889 
Q 1547 409 2034 409 
Q 2525 409 2770 889 
Q 3016 1369 3016 2328 
Q 3016 3291 2770 3770 
Q 2525 4250 2034 4250 
z
M 2034 4750 
Q 2819 4750 3233 4129 
Q 3647 3509 3647 2328 
Q 3647 1150 3233 529 
Q 2819 -91 2034 -91 
Q 1250 -91 836 529 
Q 422 1150 422 2328 
Q 422 3509 836 4129 
Q 1250 4750 2034 4750 
z
" transform="scale(0.015625)"/>
       </defs>
       <use xlink:href="#DejaVuSans-31"/>
       <use xlink:href="#DejaVuSans-30" transform="translate(63.623047 0)"/>
      </g>
     </g>
    </g>
    <g id="xtick_3">
     <g id="line2d_5">
      <path d="M 340.403901 246.04 
L 340.403901 10.8 
" clip-path="url(#p1b9ffcbd3d)" style="fill: none; stroke: #b0b0b0; stroke-width: 0.8; stroke-linecap: square"/>
     </g>
     <g id="line2d_6">
      <g>
       <use xlink:href="#m6788339c57" x="340.403901" y="246.04" style="stroke: #000000; stroke-width: 0.8"/>
      </g>
     </g>
     <g id="text_3">
      <!-- 15 -->
      <g transform="translate(334.041401 260.638438) scale(0.1 -0.1)">
       <use xlink:href="#DejaVuSans-31"/>
       <use xlink:href="#DejaVuSans-35" transform="translate(63.623047 0)"/>
      </g>
     </g>
    </g>
    <g id="xtick_4">
     <g id="line2d_7">
      <path d="M 449.595881 246.04 
L 449.595881 10.8 
" clip-path="url(#p1b9ffcbd3d)" style="fill: none; stroke: #b0b0b0; stroke-width: 0.8; stroke-linecap: square"/>
     </g>
     <g id="line2d_8">
      <g>
       <use xlink:href="#m6788339c57" x="449.595881" y="246.04" style="stroke: #000000; stroke-width: 0.8"/>
      </g>
     </g>
     <g id="text_4">
      <!-- 20 -->
      <g transform="translate(443.233381 260.638438) scale(0.1 -0.1)">
       <defs>
        <path id="DejaVuSans-32" d="M 1228 531 
L 3431 531 
L 3431 0 
L 469 0 
L 469 531 
Q 828 903 1448 1529 
Q 2069 2156 2228 2338 
Q 2531 2678 2651 2914 
Q 2772 3150 2772 3378 
Q 2772 3750 2511 3984 
Q 2250 4219 1831 4219 
Q 1534 4219 1204 4116 
Q 875 4013 500 3803 
L 500 4441 
Q 881 4594 1212 4672 
Q 1544 4750 1819 4750 
Q 2544 4750 2975 4387 
Q 3406 4025 3406 3419 
Q 3406 3131 3298 2873 
Q 3191 2616 2906 2266 
Q 2828 2175 2409 1742 
Q 1991 1309 1228 531 
z
" transform="scale(0.015625)"/>
       </defs>
       <use xlink:href="#DejaVuSans-32"/>
       <use xlink:href="#DejaVuSans-30" transform="translate(63.623047 0)"/>
      </g>
     </g>
    </g>
    <g id="xtick_5">
     <g id="line2d_9">
      <path d="M 558.78786 246.04 
L 558.78786 10.8 
" clip-path="url(#p1b9ffcbd3d)" style="fill: none; stroke: #b0b0b0; stroke-width: 0.8; stroke-linecap: square"/>
     </g>
     <g id="line2d_10">
      <g>
       <use xlink:href="#m6788339c57" x="558.78786" y="246.04" style="stroke: #000000; stroke-width: 0.8"/>
      </g>
     </g>
     <g id="text_5">
      <!-- 25 -->
      <g transform="translate(552.42536 260.638438) scale(0.1 -0.1)">
       <use xlink:href="#DejaVuSans-32"/>
       <use xlink:href="#DejaVuSans-35" transform="translate(63.623047 0)"/>
      </g>
     </g>
    </g>
    <g id="text_6">
     <!-- Time (h) -->
     <g transform="translate(287.632941 274.316562) scale(0.1 -0.1)">
      <defs>
       <path id="DejaVuSans-54" d="M -19 4666 
L 3928 4666 
L 3928 4134 
L 2272 4134 
L 2272 0 
L 1638 0 
L 1638 4134 
L -19 4134 
L -19 4666 
z
" transform="scale(0.015625)"/>
       <path id="DejaVuSans-69" d="M 603 3500 
L 1178 3500 
L 1178 0 
L 603 0 
L 603 3500 
z
M 603 4863 
L 1178 4863 
L 1178 4134 
L 603 4134 
L 603 4863 
z
" transform="scale(0.015625)"/>
       <path id="DejaVuSans-6d" d="M 3328 2828 
Q 3544 3216 3844 3400 
Q 4144 3584 4550 3584 
Q 5097 3584 5394 3201 
Q 5691 2819 5691 2113 
L 5691 0 
L 5113 0 
L 5113 2094 
Q 5113 2597 4934 2840 
Q 4756 3084 4391 3084 
Q 3944 3084 3684 2787 
Q 3425 2491 3425 1978 
L 3425 0 
L 2847 0 
L 2847 2094 
Q 2847 2600 2669 2842 
Q 2491 3084 2119 3084 
Q 1678 3084 1418 2786 
Q 1159 2488 1159 1978 
L 1159 0 
L 581 0 
L 581 3500 
L 1159 3500 
L 1159 2956 
Q 1356 3278 1631 3431 
Q 1906 3584 2284 3584 
Q 2666 3584 2933 3390 
Q 3200 3197 3328 2828 
z
" transform="scale(0.015625)"/>
       <path id="DejaVuSans-65" d="M 3597 1894 
L 3597 1613 
L 953 1613 
Q 991 1019 1311 708 
Q 1631 397 2203 397 
Q 2534 397 2845 478 
Q 3156 559 3463 722 
L 3463 178 
Q 3153 47 2828 -22 
Q 2503 -91 2169 -91 
Q 1331 -91 842 396 
Q 353 884 353 1716 
Q 353 2575 817 3079 
Q 1281 3584 2069 3584 
Q 2775 3584 3186 3129 
Q 3597 2675 3597 1894 
z
M 3022 2063 
Q 3016 2534 2758 2815 
Q 2500 3097 2075 3097 
Q 1594 3097 1305 2825 
Q 1016 2553 972 2059 
L 3022 2063 
z
" transform="scale(0.015625)"/>
       <path id="DejaVuSans-20" transform="scale(0.015625)"/>
       <path id="DejaVuSans-28" d="M 1984 4856 
Q 1566 4138 1362 3434 
Q 1159 2731 1159 2009 
Q 1159 1288 1364 580 
Q 1569 -128 1984 -844 
L 1484 -844 
Q 1016 -109 783 600 
Q 550 1309 550 2009 
Q 550 2706 781 3412 
Q 1013 4119 1484 4856 
L 1984 4856 
z
" transform="scale(0.015625)"/>
       <path id="DejaVuSans-68" d="M 3513 2113 
L 3513 0 
L 2938 0 
L 2938 2094 
Q 2938 2591 2744 2837 
Q 2550 3084 2163 3084 
Q 1697 3084 1428 2787 
Q 1159 2491 1159 1978 
L 1159 0 
L 581 0 
L 581 4863 
L 1159 4863 
L 1159 2956 
Q 1366 3272 1645 3428 
Q 1925 3584 2291 3584 
Q 2894 3584 3203 3211 
Q 3513 2838 3513 2113 
z
" transform="scale(0.015625)"/>
       <path id="DejaVuSans-29" d="M 513 4856 
L 1013 4856 
Q 1481 4119 1714 3412 
Q 1947 2706 1947 2009 
Q 1947 1309 1714 600 
Q 1481 -109 1013 -844 
L 513 -844 
Q 928 -128 1133 580 
Q 1338 1288 1338 2009 
Q 1338 2731 1133 3434 
Q 928 4138 513 4856 
z
" transform="scale(0.015625)"/>
      </defs>
      <use xlink:href="#DejaVuSans-54"/>
      <use xlink:href="#DejaVuSans-69" transform="translate(57.958984 0)"/>
      <use xlink:href="#DejaVuSans-6d" transform="translate(85.742188 0)"/>
      <use xlink:href="#DejaVuSans-65" transform="translate(183.154297 0)"/>
      <use xlink:href="#DejaVuSans-20" transform="translate(244.677734 0)"/>
      <use xlink:href="#DejaVuSans-28" transform="translate(276.464844 0)"/>
      <use xlink:href="#DejaVuSans-68" transform="translate(315.478516 0)"/>
      <use xlink:href="#DejaVuSans-29" transform="translate(378.857422 0)"/>
     </g>
    </g>
   </g>
   <g id="matplotlib.axis_2">
    <g id="ytick_1">
     <g id="line2d_11">
      <path d="M 57.26 220.285281 
L 559.791819 220.285281 
" clip-path="url(#p1b9ffcbd3d)" style="fill: none; stroke: #b0b0b0; stroke-width: 0.8; stroke-linecap: square"/>
     </g>
     <g id="line2d_12">
      <defs>
       <path id="m1868ec3bb5" d="M 0 0 
L -3.5 0 
" style="stroke: #000000; stroke-width: 0.8"/>
      </defs>
      <g>
       <use xlink:href="#m1868ec3bb5" x="57.26" y="220.285281" style="stroke: #000000; stroke-width: 0.8"/>
      </g>
     </g>
     <g id="text_7">
      <!-- 1200 -->
      <g transform="translate(24.81 224.0845) scale(0.1 -0.1)">
       <use xlink:href="#DejaVuSans-31"/>
       <use xlink:href="#DejaVuSans-32" transform="translate(63.623047 0)"/>
       <use xlink:href="#DejaVuSans-30" transform="translate(127.246094 0)"/>
       <use xlink:href="#DejaVuSans-30" transform="translate(190.869141 0)"/>
      </g>
     </g>
    </g>
    <g id="ytick_2">
     <g id="line2d_13">
      <path d="M 57.26 183.739511 
L 559.791819 183.739511 
" clip-path="url(#p1b9ffcbd3d)" style="fill: none; stroke: #b0b0b0; stroke-width: 0.8; stroke-linecap: square"/>
     </g>
     <g id="line2d_14">
      <g>
       <use xlink:href="#m1868ec3bb5" x="57.26" y="183.739511" style="stroke: #000000; stroke-width: 0.8"/>
      </g>
     </g>
     <g id="text_8">
      <!-- 1400 -->
      <g transform="translate(24.81 187.53873) scale(0.1 -0.1)">
       <defs>
        <path id="DejaVuSans-34" d="M 2419 4116 
L 825 1625 
L 2419 1625 
L 2419 4116 
z
M 2253 4666 
L 3047 4666 
L 3047 1625 
L 3713 1625 
L 3713 1100 
L 3047 1100 
L 3047 0 
L 2419 0 
L 2419 1100 
L 313 1100 
L 313 1709 
L 2253 4666 
z
" transform="scale(0.015625)"/>
       </defs>
       <use xlink:href="#DejaVuSans-31"/>
       <use xlink:href="#DejaVuSans-34" transform="translate(63.623047 0)"/>
       <use xlink:href="#DejaVuSans-30" transform="translate(127.246094 0)"/>
       <use xlink:href="#DejaVuSans-30" transform="translate(190.869141 0)"/>
      </g>
     </g>
    </g>
    <g id="ytick_3">
     <g id="line2d_15">
      <path d="M 57.26 147.193741 
L 559.791819 147.193741 
" clip-path="url(#p1b9ffcbd3d)" style="fill: none; stroke: #b0b0b0; stroke-width: 0.8; stroke-linecap: square"/>
     </g>
     <g id="line2d_16">
      <g>
       <use xlink:href="#m1868ec3bb5" x="57.26" y="147.193741" style="stroke: #000000; stroke-width: 0.8"/>
      </g>
     </g>
     <g id="text_9">
      <!-- 1600 -->
      <g transform="translate(24.81 150.992959) scale(0.1 -0.1)">
       <defs>
        <path id="DejaVuSans-36" d="M 2113 2584 
Q 1688 2584 1439 2293 
Q 1191 2003 1191 1497 
Q 1191 994 1439 701 
Q 1688 409 2113 409 
Q 2538 409 2786 701 
Q 3034 994 3034 1497 
Q 3034 2003 2786 2293 
Q 2538 2584 2113 2584 
z
M 3366 4563 
L 3366 3988 
Q 3128 4100 2886 4159 
Q 2644 4219 2406 4219 
Q 1781 4219 1451 3797 
Q 1122 3375 1075 2522 
Q 1259 2794 1537 2939 
Q 1816 3084 2150 3084 
Q 2853 3084 3261 2657 
Q 3669 2231 3669 1497 
Q 3669 778 3244 343 
Q 2819 -91 2113 -91 
Q 1303 -91 875 529 
Q 447 1150 447 2328 
Q 447 3434 972 4092 
Q 1497 4750 2381 4750 
Q 2619 4750 2861 4703 
Q 3103 4656 3366 4563 
z
" transform="scale(0.015625)"/>
       </defs>
       <use xlink:href="#DejaVuSans-31"/>
       <use xlink:href="#DejaVuSans-36" transform="translate(63.623047 0)"/>
       <use xlink:href="#DejaVuSans-30" transform="translate(127.246094 0)"/>
       <use xlink:href="#DejaVuSans-30" transform="translate(190.869141 0)"/>
      </g>
     </g>
    </g>
    <g id="ytick_4">
     <g id="line2d_17">
      <path d="M 57.26 110.64797 
L 559.791819 110.64797 
" clip-path="url(#p1b9ffcbd3d)" style="fill: none; stroke: #b0b0b0; stroke-width: 0.8; stroke-linecap: square"/>
     </g>
     <g id="line2d_18">
      <g>
       <use xlink:href="#m1868ec3bb5" x="57.26" y="110.64797" style="stroke: #000000; stroke-width: 0.8"/>
      </g>
     </g>
     <g id="text_10">
      <!-- 1800 -->
      <g transform="translate(24.81 114.447189) scale(0.1 -0.1)">
       <defs>
        <path id="DejaVuSans-38" d="M 2034 2216 
Q 1584 2216 1326 1975 
Q 1069 1734 1069 1313 
Q 1069 891 1326 650 
Q 1584 409 2034 409 
Q 2484 409 2743 651 
Q 3003 894 3003 1313 
Q 3003 1734 2745 1975 
Q 2488 2216 2034 2216 
z
M 1403 2484 
Q 997 2584 770 2862 
Q 544 3141 544 3541 
Q 544 4100 942 4425 
Q 1341 4750 2034 4750 
Q 2731 4750 3128 4425 
Q 3525 4100 3525 3541 
Q 3525 3141 3298 2862 
Q 3072 2584 2669 2484 
Q 3125 2378 3379 2068 
Q 3634 1759 3634 1313 
Q 3634 634 3220 271 
Q 2806 -91 2034 -91 
Q 1263 -91 848 271 
Q 434 634 434 1313 
Q 434 1759 690 2068 
Q 947 2378 1403 2484 
z
M 1172 3481 
Q 1172 3119 1398 2916 
Q 1625 2713 2034 2713 
Q 2441 2713 2670 2916 
Q 2900 3119 2900 3481 
Q 2900 3844 2670 4047 
Q 2441 4250 2034 4250 
Q 1625 4250 1398 4047 
Q 1172 3844 1172 3481 
z
" transform="scale(0.015625)"/>
       </defs>
       <use xlink:href="#DejaVuSans-31"/>
       <use xlink:href="#DejaVuSans-38" transform="translate(63.623047 0)"/>
       <use xlink:href="#DejaVuSans-30" transform="translate(127.246094 0)"/>
       <use xlink:href="#DejaVuSans-30" transform="translate(190.869141 0)"/>
      </g>
     </g>
    </g>
    <g id="ytick_5">
     <g id="line2d_19">
      <path d="M 57.26 74.1022 
L 559.791819 74.1022 
" clip-path="url(#p1b9ffcbd3d)" style="fill: none; stroke: #b0b0b0; stroke-width: 0.8; stroke-linecap: square"/>
     </g>
     <g id="line2d_20">
      <g>
       <use xlink:href="#m1868ec3bb5" x="57.26" y="74.1022" style="stroke: #000000; stroke-width: 0.8"/>
      </g>
     </g>
     <g id="text_11">
      <!-- 2000 -->
      <g transform="translate(24.81 77.901419) scale(0.1 -0.1)">
       <use xlink:href="#DejaVuSans-32"/>
       <use xlink:href="#DejaVuSans-30" transform="translate(63.623047 0)"/>
       <use xlink:href="#DejaVuSans-30" transform="translate(127.246094 0)"/>
       <use xlink:href="#DejaVuSans-30" transform="translate(190.869141 0)"/>
      </g>
     </g>
    </g>
    <g id="ytick_6">
     <g id="line2d_21">
      <path d="M 57.26 37.55643 
L 559.791819 37.55643 
" clip-path="url(#p1b9ffcbd3d)" style="fill: none; stroke: #b0b0b0; stroke-width: 0.8; stroke-linecap: square"/>
     </g>
     <g id="line2d_22">
      <g>
       <use xlink:href="#m1868ec3bb5" x="57.26" y="37.55643" style="stroke: #000000; stroke-width: 0.8"/>
      </g>
     </g>
     <g id="text_12">
      <!-- 2200 -->
      <g transform="translate(24.81 41.355648) scale(0.1 -0.1)">
       <use xlink:href="#DejaVuSans-32"/>
       <use xlink:href="#DejaVuSans-32" transform="translate(63.623047 0)"/>
       <use xlink:href="#DejaVuSans-30" transform="translate(127.246094 0)"/>
       <use xlink:href="#DejaVuSans-30" transform="translate(190.869141 0)"/>
      </g>
     </g>
    </g>
    <g id="text_13">
     <!-- Power (kW) -->
     <g transform="translate(18.730313 156.86375) rotate(-90) scale(0.1 -0.1)">
      <defs>
       <path id="DejaVuSans-50" d="M 1259 4147 
L 1259 2394 
L 2053 2394 
Q 2494 2394 2734 2622 
Q 2975 2850 2975 3272 
Q 2975 3691 2734 3919 
Q 2494 4147 2053 4147 
L 1259 4147 
z
M 628 4666 
L 2053 4666 
Q 2838 4666 3239 4311 
Q 3641 3956 3641 3272 
Q 3641 2581 3239 2228 
Q 2838 1875 2053 1875 
L 1259 1875 
L 1259 0 
L 628 0 
L 628 4666 
z
" transform="scale(0.015625)"/>
       <path id="DejaVuSans-6f" d="M 1959 3097 
Q 1497 3097 1228 2736 
Q 959 2375 959 1747 
Q 959 1119 1226 758 
Q 1494 397 1959 397 
Q 2419 397 2687 759 
Q 2956 1122 2956 1747 
Q 2956 2369 2687 2733 
Q 2419 3097 1959 3097 
z
M 1959 3584 
Q 2709 3584 3137 3096 
Q 3566 2609 3566 1747 
Q 3566 888 3137 398 
Q 2709 -91 1959 -91 
Q 1206 -91 779 398 
Q 353 888 353 1747 
Q 353 2609 779 3096 
Q 1206 3584 1959 3584 
z
" transform="scale(0.015625)"/>
       <path id="DejaVuSans-77" d="M 269 3500 
L 844 3500 
L 1563 769 
L 2278 3500 
L 2956 3500 
L 3675 769 
L 4391 3500 
L 4966 3500 
L 4050 0 
L 3372 0 
L 2619 2869 
L 1863 0 
L 1184 0 
L 269 3500 
z
" transform="scale(0.015625)"/>
       <path id="DejaVuSans-72" d="M 2631 2963 
Q 2534 3019 2420 3045 
Q 2306 3072 2169 3072 
Q 1681 3072 1420 2755 
Q 1159 2438 1159 1844 
L 1159 0 
L 581 0 
L 581 3500 
L 1159 3500 
L 1159 2956 
Q 1341 3275 1631 3429 
Q 1922 3584 2338 3584 
Q 2397 3584 2469 3576 
Q 2541 3569 2628 3553 
L 2631 2963 
z
" transform="scale(0.015625)"/>
       <path id="DejaVuSans-6b" d="M 581 4863 
L 1159 4863 
L 1159 1991 
L 2875 3500 
L 3609 3500 
L 1753 1863 
L 3688 0 
L 2938 0 
L 1159 1709 
L 1159 0 
L 581 0 
L 581 4863 
z
" transform="scale(0.015625)"/>
       <path id="DejaVuSans-57" d="M 213 4666 
L 850 4666 
L 1831 722 
L 2809 4666 
L 3519 4666 
L 4500 722 
L 5478 4666 
L 6119 4666 
L 4947 0 
L 4153 0 
L 3169 4050 
L 2175 0 
L 1381 0 
L 213 4666 
z
" transform="scale(0.015625)"/>
      </defs>
      <use xlink:href="#DejaVuSans-50"/>
      <use xlink:href="#DejaVuSans-6f" transform="translate(56.677734 0)"/>
      <use xlink:href="#DejaVuSans-77" transform="translate(117.859375 0)"/>
      <use xlink:href="#DejaVuSans-65" transform="translate(199.646484 0)"/>
      <use xlink:href="#DejaVuSans-72" transform="translate(261.169922 0)"/>
      <use xlink:href="#DejaVuSans-20" transform="translate(302.283203 0)"/>
      <use xlink:href="#DejaVuSans-28" transform="translate(334.070312 0)"/>
      <use xlink:href="#DejaVuSans-6b" transform="translate(373.083984 0)"/>
      <use xlink:href="#DejaVuSans-57" transform="translate(430.994141 0)"/>
      <use xlink:href="#DejaVuSans-29" transform="translate(529.871094 0)"/>
     </g>
    </g>
   </g>
   <g id="line2d_23">
    <path d="M 80.102355 80.008394 
L 80.951626 79.406216 
L 84.227386 76.833464 
L 84.591359 76.526137 
L 85.379968 75.884568 
L 85.865265 75.457314 
L 86.593212 74.952383 
L 87.260496 74.356818 
L 88.413078 73.549553 
L 91.446189 71.117762 
L 91.810162 70.7507 
L 95.692544 67.681813 
L 96.96645 66.660626 
L 97.148437 66.553133 
L 100.788169 63.435827 
L 101.698102 63.327222 
L 103.27532 63.1852 
L 105.216511 65.513166 
L 105.701808 65.590765 
L 107.582337 67.841132 
L 108.067635 67.918731 
L 109.948163 70.169098 
L 110.979421 70.265265 
L 112.859949 73.054102 
L 113.891207 73.150269 
L 115.771735 75.939106 
L 116.802993 76.035273 
L 118.683521 78.82411 
L 120.746037 78.82411 
L 122.687227 82.733155 
L 124.810405 82.824263 
L 126.690933 84.099769 
L 129.724044 84.206233 
L 131.54391 84.287647 
L 133.667087 84.394111 
L 135.486954 84.475524 
L 137.124833 84.583054 
L 138.9447 84.629138 
L 140.400593 84.736668 
L 142.220459 84.782752 
L 143.61569 84.890282 
L 145.435556 84.936367 
L 145.678205 84.992611 
L 147.558734 86.623697 
L 148.468667 86.709414 
L 150.349195 89.195196 
L 151.319791 89.280912 
L 153.200319 91.766694 
L 154.110252 91.852411 
L 155.990781 94.338192 
L 156.900714 94.423909 
L 158.781243 96.909691 
L 159.509189 96.98915 
L 161.389718 99.293465 
L 162.178326 99.372924 
L 164.058855 101.677239 
L 164.786801 101.756698 
L 166.66733 104.061013 
L 167.395277 103.974616 
L 169.275805 101.46911 
L 169.639778 101.46911 
L 171.520307 96.485578 
L 172.005605 96.485578 
L 173.886133 91.502046 
L 174.371431 91.502046 
L 176.251959 86.518514 
L 176.737257 86.518514 
L 178.617786 81.534983 
L 179.042421 81.534983 
L 180.92295 76.719956 
L 181.286923 76.719956 
L 183.167451 71.90493 
L 183.592087 71.90493 
L 185.472615 67.089903 
L 185.836589 67.089903 
L 187.717117 62.274877 
L 188.202415 62.274877 
L 190.082943 57.999278 
L 190.568241 57.909201 
L 192.44877 55.296987 
L 192.934067 55.20691 
L 194.814596 52.594696 
L 195.239231 52.504619 
L 197.11976 49.892404 
L 197.362409 49.811774 
L 199.242937 47.473504 
L 199.424924 47.392874 
L 201.305452 45.054604 
L 201.548101 44.973974 
L 203.42863 42.635704 
L 203.610616 42.555074 
L 205.491145 40.216803 
L 205.733794 40.134784 
L 207.614322 37.756222 
L 207.856971 37.674202 
L 209.7375 35.29564 
L 209.980148 35.225362 
L 211.860677 33.187288 
L 212.163988 33.109251 
L 214.529814 31.719417 
L 216.046369 30.901803 
L 216.228356 30.827475 
L 219.928751 28.671946 
L 220.292724 28.597618 
L 224.175106 26.347684 
L 233.092451 21.492727 
L 242.373769 29.184646 
L 252.01906 36.987287 
L 252.261709 37.046189 
L 254.142238 38.754349 
L 254.384887 38.842955 
L 256.265415 41.412532 
L 256.568726 41.519399 
L 258.449255 44.61856 
L 258.691904 44.725427 
L 260.572432 47.824588 
L 260.875743 47.93226 
L 262.756272 51.05475 
L 263.059583 51.162422 
L 264.940111 54.284912 
L 265.18276 54.392584 
L 267.063289 57.515073 
L 267.3666 57.622746 
L 269.247128 60.745235 
L 269.611102 60.745235 
L 271.552292 64.155368 
L 271.916266 64.155368 
L 273.857456 67.565501 
L 274.160767 67.565501 
L 276.101958 70.975634 
L 276.465931 70.975634 
L 278.34646 75.237763 
L 278.831758 75.237763 
L 280.712286 80.059276 
L 281.258246 80.059276 
L 283.138774 84.88079 
L 283.624072 84.88079 
L 285.504601 89.702303 
L 285.989898 89.702303 
L 287.870427 94.523817 
L 288.295062 94.523817 
L 290.175591 99.221604 
L 290.660889 99.221604 
L 292.541417 103.919391 
L 292.966053 103.919391 
L 294.846581 108.617177 
L 295.271217 108.617177 
L 297.151745 113.314964 
L 297.697705 113.314964 
L 299.638896 117.100597 
L 300.124193 117.176381 
L 302.004722 119.374135 
L 302.550682 119.449919 
L 304.43121 121.647673 
L 304.916508 121.723458 
L 306.797037 123.921211 
L 307.282334 123.995227 
L 309.162863 126.141704 
L 309.587498 126.21572 
L 311.468027 128.362197 
L 311.953325 128.436213 
L 313.833853 130.58269 
L 314.258489 130.656706 
L 316.139017 132.803182 
L 316.806301 132.883654 
L 318.68683 135.217342 
L 319.414776 135.30203 
L 321.295305 136.487664 
L 321.962589 136.395848 
L 323.843118 135.110418 
L 324.510402 135.018602 
L 326.390931 133.733172 
L 326.815566 133.65048 
L 328.696095 132.492791 
L 329.060068 132.410099 
L 330.940596 131.25241 
L 331.365232 131.169718 
L 333.24576 130.012029 
L 333.670396 129.929337 
L 335.550924 128.771648 
L 336.036222 128.68715 
L 337.916751 127.504177 
L 338.341386 127.419679 
L 340.221915 126.236707 
L 340.707212 126.132421 
L 342.527079 124.672424 
L 342.891052 124.672424 
L 344.77158 119.760425 
L 345.196216 119.760425 
L 347.076745 114.887818 
L 347.562042 114.887818 
L 349.442571 110.01521 
L 349.867206 110.01521 
L 351.747735 105.142602 
L 352.17237 105.142602 
L 354.052899 100.269995 
L 354.659521 100.269995 
L 356.540049 95.077845 
L 357.146671 95.077845 
L 359.0272 89.885695 
L 359.633822 89.885695 
L 361.514351 84.693545 
L 362.060311 84.693545 
L 363.940839 79.501394 
L 364.365475 79.609575 
L 365.33607 80.158272 
L 366.791963 80.960514 
L 369.157789 82.138963 
L 370.128385 82.644087 
L 370.310371 82.721799 
L 371.948251 83.886591 
L 372.251562 84.070058 
L 373.464806 84.764189 
L 373.828779 84.966644 
L 374.920699 85.602931 
L 375.345335 85.863231 
L 376.437254 86.499518 
L 376.801228 86.701973 
L 378.863743 87.806041 
L 383.049435 90.171358 
L 383.413409 90.434171 
L 385.233275 91.522125 
L 387.417115 94.389374 
L 390.692874 100.372007 
L 390.753536 100.372007 
L 392.694727 103.823526 
L 392.755389 103.823526 
L 396.516446 110.821024 
L 396.637771 110.821024 
L 400.398828 117.818523 
L 400.702139 117.818523 
L 402.643329 121.53304 
L 402.764654 121.53304 
L 404.705845 125.247558 
L 404.827169 125.247558 
L 406.76836 128.962075 
L 407.192995 129.066616 
L 409.012862 129.74613 
L 409.194848 129.668737 
L 411.075377 127.424331 
L 411.378688 127.346938 
L 413.259216 125.102533 
L 413.62319 125.02514 
L 415.503718 122.780734 
L 415.807029 122.703341 
L 417.687558 120.458936 
L 417.990869 120.382749 
L 419.871397 118.173343 
L 420.174708 118.097157 
L 422.055237 115.887751 
L 422.297886 115.811564 
L 424.178414 113.602158 
L 424.481725 113.525971 
L 426.362254 111.316565 
L 426.726227 111.237501 
L 428.606756 108.944629 
L 429.031391 108.847743 
L 430.91192 106.038062 
L 431.215231 106.038062 
L 433.156421 102.678858 
L 433.459732 102.678858 
L 435.400923 99.319653 
L 435.764896 99.319653 
L 437.706087 95.858137 
L 438.130723 95.858137 
L 440.071913 92.39662 
L 440.435887 92.39662 
L 442.377077 88.935103 
L 442.741051 88.935103 
L 444.682241 85.473587 
L 445.410188 85.473587 
L 447.351379 81.550052 
L 448.018663 81.550052 
L 449.959854 77.626518 
L 450.627138 77.626518 
L 452.568329 74.061002 
L 453.356938 73.959178 
L 455.237466 71.006301 
L 456.026075 70.902338 
L 457.906603 67.887432 
L 458.695212 67.783469 
L 460.575741 64.768563 
L 461.425012 64.6646 
L 463.30554 61.649693 
L 464.094149 61.545731 
L 465.974677 58.530824 
L 466.581299 58.435084 
L 468.461828 55.658625 
L 469.06845 55.562885 
L 470.948979 52.786426 
L 471.555601 52.692646 
L 473.436129 49.973039 
L 474.224738 49.878728 
L 476.772551 49.202598 
L 480.04831 48.462989 
L 480.59427 48.352835 
L 485.932545 47.080922 
L 494.84989 45.17989 
L 497.276378 50.49229 
L 501.826044 61.827168 
L 502.068693 62.547778 
L 506.315047 72.921099 
L 510.925375 84.433579 
L 510.986038 84.433579 
L 512.866566 89.038571 
L 513.048553 89.038571 
L 514.929081 94.07865 
L 515.050406 94.07865 
L 516.930934 99.118729 
L 517.35557 99.209609 
L 520.510005 100.274452 
L 524.149737 101.39508 
L 533.249069 104.163119 
L 533.734367 104.326352 
L 536.949464 105.319438 
L 536.949464 105.319438 
" clip-path="url(#p1b9ffcbd3d)" style="fill: none; stroke: #1f77b4; stroke-width: 1.5; stroke-linecap: square"/>
   </g>
   <g id="line2d_24">
    <path d="M 80.102355 210.326981 
L 80.830302 209.376592 
L 82.407519 207.40375 
L 82.650168 207.161977 
L 83.317453 206.404247 
L 83.924075 205.828047 
L 84.773346 203.641384 
L 85.379968 202.547942 
L 85.743941 202.173623 
L 86.653874 202.88233 
L 87.07851 202.945635 
L 89.262349 201.725197 
L 92.477446 200.062695 
L 96.96645 198.309768 
L 97.269761 198.211734 
L 100.909494 196.857407 
L 103.396644 197.11469 
L 105.216511 198.796118 
L 105.701808 198.857236 
L 107.582337 200.629651 
L 108.067635 200.690758 
L 109.948163 202.462856 
L 110.979421 202.536893 
L 112.859949 204.683956 
L 113.891207 204.754622 
L 115.771735 206.80394 
L 116.802993 206.869964 
L 118.683521 208.784651 
L 120.806699 208.865734 
L 122.687227 211.217145 
L 124.749742 211.284975 
L 126.630271 213.25204 
L 128.753448 213.31249 
L 130.633977 215.065554 
L 132.696492 215.126702 
L 134.577021 216.899997 
L 135.972251 217.009024 
L 137.792118 218.535405 
L 139.187349 218.595213 
L 141.067877 220.329633 
L 142.402446 220.394249 
L 144.282974 222.268115 
L 145.920854 222.364818 
L 147.801383 222.848334 
L 148.893302 222.742149 
L 150.713169 222.45014 
L 152.897008 222.33951 
L 154.292239 222.354407 
L 158.417269 222.926432 
L 159.084554 222.987246 
L 159.8125 223.083338 
L 161.693029 223.467707 
L 162.663624 223.574638 
L 164.48349 223.824146 
L 166.364019 223.931423 
L 167.334614 223.943343 
L 169.275805 221.165422 
L 169.639778 221.165422 
L 171.520307 217.005634 
L 172.005605 217.005634 
L 173.886133 212.623538 
L 174.371431 212.623538 
L 176.251959 208.110313 
L 176.737257 208.110313 
L 178.617786 203.592274 
L 179.042421 203.592274 
L 180.92295 199.332709 
L 181.286923 199.332709 
L 183.228114 195.253779 
L 183.592087 195.253779 
L 185.533278 191.398058 
L 185.836589 191.398058 
L 187.777779 187.788432 
L 188.263077 187.69659 
L 190.143606 185.033192 
L 190.750228 184.9226 
L 192.570094 184.203755 
L 193.358703 184.097886 
L 195.178569 183.806747 
L 198.575653 183.833427 
L 202.518697 183.94368 
L 205.005847 183.815878 
L 208.463593 183.424459 
L 209.919486 183.002787 
L 212.103326 182.944689 
L 213.983854 185.10287 
L 214.105179 185.172359 
L 215.985707 187.187542 
L 216.167694 187.243714 
L 218.048222 188.872704 
L 218.230209 188.95182 
L 220.110738 190.05945 
L 220.353386 190.151319 
L 222.233915 190.989108 
L 224.053781 190.976069 
L 225.994972 190.193431 
L 228.178812 188.665051 
L 231.393909 186.190184 
L 233.213775 185.158161 
L 235.640264 185.421563 
L 237.945428 186.024819 
L 238.612712 186.292713 
L 241.281849 190.099237 
L 243.950986 194.45994 
L 252.079723 207.84206 
L 252.201047 207.84206 
L 254.142238 211.313111 
L 254.384887 211.390996 
L 256.265415 213.649683 
L 256.629388 213.746058 
L 258.449255 215.095301 
L 258.813228 215.193158 
L 260.633094 216.073871 
L 261.118392 216.169844 
L 262.998921 216.649709 
L 265.486071 217.162059 
L 267.669911 217.394065 
L 276.647918 217.557318 
L 278.467784 218.450487 
L 278.953082 218.538621 
L 280.83361 219.772484 
L 281.440233 219.875937 
L 283.260099 220.807019 
L 283.866721 220.89833 
L 285.74725 221.491848 
L 286.535858 221.599067 
L 288.416387 221.856478 
L 291.692146 221.942547 
L 303.703264 221.656931 
L 305.947766 221.590876 
L 307.828294 221.661779 
L 310.497431 222.137007 
L 311.710676 222.407058 
L 312.135311 222.513959 
L 313.955177 223.208819 
L 314.379813 223.295642 
L 316.260341 224.077047 
L 316.927626 224.169097 
L 318.808154 224.99755 
L 319.657425 225.098598 
L 321.477292 225.502792 
L 322.447887 225.401644 
L 324.328416 225.199346 
L 326.815566 225.307204 
L 328.878081 225.776389 
L 329.12073 225.864497 
L 331.001259 226.657469 
L 331.365232 226.732781 
L 333.24576 227.787158 
L 333.670396 227.87046 
L 335.550924 229.036682 
L 336.036222 229.124727 
L 337.916751 230.357361 
L 338.341386 230.446356 
L 340.221915 231.692292 
L 340.767875 231.793062 
L 342.587741 232.699996 
L 342.951714 232.597464 
L 344.832243 229.624008 
L 345.256878 229.532592 
L 347.137407 226.881531 
L 347.622704 226.801838 
L 349.503233 224.490756 
L 349.927868 224.419676 
L 351.808397 222.358342 
L 352.233032 222.291101 
L 354.113561 220.34111 
L 354.720183 220.270108 
L 356.600712 218.211055 
L 357.207334 218.138635 
L 359.087862 216.038446 
L 359.694484 215.962861 
L 361.575013 213.770881 
L 362.120973 213.691397 
L 364.001501 211.386358 
L 364.365475 211.494807 
L 365.457394 212.098545 
L 366.609976 212.669885 
L 372.433549 214.730832 
L 374.617388 214.896216 
L 376.012619 214.813641 
L 377.589836 214.597846 
L 379.470365 214.241827 
L 384.990626 213.303469 
L 387.356452 213.879766 
L 389.297643 214.741685 
L 391.784794 215.528044 
L 394.089958 216.038094 
L 396.577108 216.482729 
L 397.244393 216.589484 
L 401.733396 217.490264 
L 404.766507 218.255744 
L 405.251805 218.361685 
L 406.950346 218.709774 
L 408.952199 217.59185 
L 409.194848 217.502716 
L 411.075377 214.917825 
L 411.378688 214.840937 
L 413.259216 212.611193 
L 413.62319 212.549568 
L 415.503718 210.76245 
L 415.867691 210.669522 
L 417.74822 209.368527 
L 418.112193 209.271636 
L 419.932059 208.399622 
L 420.417357 208.291891 
L 422.297886 207.738114 
L 425.391658 207.080672 
L 428.788742 206.418673 
L 429.152716 206.327575 
L 431.033244 205.507685 
L 431.336555 205.427621 
L 433.217084 204.30672 
L 433.581057 204.231817 
L 435.461585 203.183169 
L 435.886221 203.103445 
L 437.766749 201.98731 
L 438.252047 201.896463 
L 440.132576 200.624606 
L 440.557211 200.522788 
L 442.377077 199.097337 
L 442.862375 198.992396 
L 444.682241 197.523212 
L 445.47085 197.465777 
L 447.351379 195.800173 
L 448.139987 195.691719 
L 449.959854 194.173359 
L 450.809125 194.068076 
L 452.628991 193.120524 
L 454.266871 193.011348 
L 456.026075 192.91886 
L 459.423159 193.1961 
L 460.879052 193.443338 
L 461.606998 193.54137 
L 463.426865 194.178574 
L 464.215473 194.26991 
L 466.096002 195.091935 
L 466.702624 195.177739 
L 468.583152 195.949971 
L 469.250437 196.049109 
L 471.070303 196.693503 
L 471.79825 196.787788 
L 473.678778 197.259215 
L 474.042751 197.352793 
L 475.862618 198.662884 
L 476.165929 198.747241 
L 478.046457 199.506453 
L 480.290959 199.887583 
L 482.535461 199.559131 
L 486.235856 197.563787 
L 494.667903 191.792802 
L 494.84989 191.801409 
L 497.155054 195.033145 
L 500.127502 200.095731 
L 500.370151 200.620514 
L 502.55399 204.67289 
L 504.616506 208.85414 
L 506.739683 213.417428 
L 511.956633 224.724807 
L 512.927228 226.591761 
L 513.048553 226.591761 
L 514.929081 230.851613 
L 515.050406 230.851613 
L 516.991597 234.918726 
L 517.598219 235.026334 
L 519.418085 235.326569 
L 521.419938 235.247549 
L 523.057818 234.843598 
L 524.695697 234.07164 
L 526.758212 232.721212 
L 529.245363 230.76869 
L 531.186554 229.009887 
L 533.734367 226.58682 
L 536.949464 223.559414 
L 536.949464 223.559414 
" clip-path="url(#p1b9ffcbd3d)" style="fill: none; stroke: #ff7f0e; stroke-width: 1.5; stroke-linecap: square"/>
   </g>
   <g id="line2d_25">
    <path d="M 80.102355 164.457962 
L 536.949464 164.457962 
L 536.949464 164.457962 
" clip-path="url(#p1b9ffcbd3d)" style="fill: none; stroke: #2ca02c; stroke-width: 1.5; stroke-linecap: square"/>
   </g>
   <g id="patch_3">
    <path d="M 57.26 246.04 
L 57.26 10.8 
" style="fill: none; stroke: #000000; stroke-width: 0.8; stroke-linejoin: miter; stroke-linecap: square"/>
   </g>
   <g id="patch_4">
    <path d="M 559.791819 246.04 
L 559.791819 10.8 
" style="fill: none; stroke: #000000; stroke-width: 0.8; stroke-linejoin: miter; stroke-linecap: square"/>
   </g>
   <g id="patch_5">
    <path d="M 57.26 246.04 
L 559.791819 246.04 
" style="fill: none; stroke: #000000; stroke-width: 0.8; stroke-linejoin: miter; stroke-linecap: square"/>
   </g>
   <g id="patch_6">
    <path d="M 57.26 10.8 
L 559.791819 10.8 
" style="fill: none; stroke: #000000; stroke-width: 0.8; stroke-linejoin: miter; stroke-linecap: square"/>
   </g>
   <g id="legend_1">
    <g id="patch_7">
     <path d="M 64.26 62.834375 
L 165.744375 62.834375 
Q 167.744375 62.834375 167.744375 60.834375 
L 167.744375 17.8 
Q 167.744375 15.8 165.744375 15.8 
L 64.26 15.8 
Q 62.26 15.8 62.26 17.8 
L 62.26 60.834375 
Q 62.26 62.834375 64.26 62.834375 
z
" style="fill: #ffffff; opacity: 0.8; stroke: #cccccc; stroke-linejoin: miter"/>
    </g>
    <g id="line2d_26">
     <path d="M 66.26 23.898438 
L 76.26 23.898438 
L 86.26 23.898438 
" style="fill: none; stroke: #1f77b4; stroke-width: 1.5; stroke-linecap: square"/>
    </g>
    <g id="text_14">
     <!-- Demand total -->
     <g transform="translate(94.26 27.398438) scale(0.1 -0.1)">
      <defs>
       <path id="DejaVuSans-44" d="M 1259 4147 
L 1259 519 
L 2022 519 
Q 2988 519 3436 956 
Q 3884 1394 3884 2338 
Q 3884 3275 3436 3711 
Q 2988 4147 2022 4147 
L 1259 4147 
z
M 628 4666 
L 1925 4666 
Q 3281 4666 3915 4102 
Q 4550 3538 4550 2338 
Q 4550 1131 3912 565 
Q 3275 0 1925 0 
L 628 0 
L 628 4666 
z
" transform="scale(0.015625)"/>
       <path id="DejaVuSans-61" d="M 2194 1759 
Q 1497 1759 1228 1600 
Q 959 1441 959 1056 
Q 959 750 1161 570 
Q 1363 391 1709 391 
Q 2188 391 2477 730 
Q 2766 1069 2766 1631 
L 2766 1759 
L 2194 1759 
z
M 3341 1997 
L 3341 0 
L 2766 0 
L 2766 531 
Q 2569 213 2275 61 
Q 1981 -91 1556 -91 
Q 1019 -91 701 211 
Q 384 513 384 1019 
Q 384 1609 779 1909 
Q 1175 2209 1959 2209 
L 2766 2209 
L 2766 2266 
Q 2766 2663 2505 2880 
Q 2244 3097 1772 3097 
Q 1472 3097 1187 3025 
Q 903 2953 641 2809 
L 641 3341 
Q 956 3463 1253 3523 
Q 1550 3584 1831 3584 
Q 2591 3584 2966 3190 
Q 3341 2797 3341 1997 
z
" transform="scale(0.015625)"/>
       <path id="DejaVuSans-6e" d="M 3513 2113 
L 3513 0 
L 2938 0 
L 2938 2094 
Q 2938 2591 2744 2837 
Q 2550 3084 2163 3084 
Q 1697 3084 1428 2787 
Q 1159 2491 1159 1978 
L 1159 0 
L 581 0 
L 581 3500 
L 1159 3500 
L 1159 2956 
Q 1366 3272 1645 3428 
Q 1925 3584 2291 3584 
Q 2894 3584 3203 3211 
Q 3513 2838 3513 2113 
z
" transform="scale(0.015625)"/>
       <path id="DejaVuSans-64" d="M 2906 2969 
L 2906 4863 
L 3481 4863 
L 3481 0 
L 2906 0 
L 2906 525 
Q 2725 213 2448 61 
Q 2172 -91 1784 -91 
Q 1150 -91 751 415 
Q 353 922 353 1747 
Q 353 2572 751 3078 
Q 1150 3584 1784 3584 
Q 2172 3584 2448 3432 
Q 2725 3281 2906 2969 
z
M 947 1747 
Q 947 1113 1208 752 
Q 1469 391 1925 391 
Q 2381 391 2643 752 
Q 2906 1113 2906 1747 
Q 2906 2381 2643 2742 
Q 2381 3103 1925 3103 
Q 1469 3103 1208 2742 
Q 947 2381 947 1747 
z
" transform="scale(0.015625)"/>
       <path id="DejaVuSans-74" d="M 1172 4494 
L 1172 3500 
L 2356 3500 
L 2356 3053 
L 1172 3053 
L 1172 1153 
Q 1172 725 1289 603 
Q 1406 481 1766 481 
L 2356 481 
L 2356 0 
L 1766 0 
Q 1100 0 847 248 
Q 594 497 594 1153 
L 594 3053 
L 172 3053 
L 172 3500 
L 594 3500 
L 594 4494 
L 1172 4494 
z
" transform="scale(0.015625)"/>
       <path id="DejaVuSans-6c" d="M 603 4863 
L 1178 4863 
L 1178 0 
L 603 0 
L 603 4863 
z
" transform="scale(0.015625)"/>
      </defs>
      <use xlink:href="#DejaVuSans-44"/>
      <use xlink:href="#DejaVuSans-65" transform="translate(77.001953 0)"/>
      <use xlink:href="#DejaVuSans-6d" transform="translate(138.525391 0)"/>
      <use xlink:href="#DejaVuSans-61" transform="translate(235.9375 0)"/>
      <use xlink:href="#DejaVuSans-6e" transform="translate(297.216797 0)"/>
      <use xlink:href="#DejaVuSans-64" transform="translate(360.595703 0)"/>
      <use xlink:href="#DejaVuSans-20" transform="translate(424.072266 0)"/>
      <use xlink:href="#DejaVuSans-74" transform="translate(455.859375 0)"/>
      <use xlink:href="#DejaVuSans-6f" transform="translate(495.068359 0)"/>
      <use xlink:href="#DejaVuSans-74" transform="translate(556.25 0)"/>
      <use xlink:href="#DejaVuSans-61" transform="translate(595.458984 0)"/>
      <use xlink:href="#DejaVuSans-6c" transform="translate(656.738281 0)"/>
     </g>
    </g>
    <g id="line2d_27">
     <path d="M 66.26 38.576562 
L 76.26 38.576562 
L 86.26 38.576562 
" style="fill: none; stroke: #ff7f0e; stroke-width: 1.5; stroke-linecap: square"/>
    </g>
    <g id="text_15">
     <!-- Supplied total -->
     <g transform="translate(94.26 42.076562) scale(0.1 -0.1)">
      <defs>
       <path id="DejaVuSans-53" d="M 3425 4513 
L 3425 3897 
Q 3066 4069 2747 4153 
Q 2428 4238 2131 4238 
Q 1616 4238 1336 4038 
Q 1056 3838 1056 3469 
Q 1056 3159 1242 3001 
Q 1428 2844 1947 2747 
L 2328 2669 
Q 3034 2534 3370 2195 
Q 3706 1856 3706 1288 
Q 3706 609 3251 259 
Q 2797 -91 1919 -91 
Q 1588 -91 1214 -16 
Q 841 59 441 206 
L 441 856 
Q 825 641 1194 531 
Q 1563 422 1919 422 
Q 2459 422 2753 634 
Q 3047 847 3047 1241 
Q 3047 1584 2836 1778 
Q 2625 1972 2144 2069 
L 1759 2144 
Q 1053 2284 737 2584 
Q 422 2884 422 3419 
Q 422 4038 858 4394 
Q 1294 4750 2059 4750 
Q 2388 4750 2728 4690 
Q 3069 4631 3425 4513 
z
" transform="scale(0.015625)"/>
       <path id="DejaVuSans-75" d="M 544 1381 
L 544 3500 
L 1119 3500 
L 1119 1403 
Q 1119 906 1312 657 
Q 1506 409 1894 409 
Q 2359 409 2629 706 
Q 2900 1003 2900 1516 
L 2900 3500 
L 3475 3500 
L 3475 0 
L 2900 0 
L 2900 538 
Q 2691 219 2414 64 
Q 2138 -91 1772 -91 
Q 1169 -91 856 284 
Q 544 659 544 1381 
z
M 1991 3584 
L 1991 3584 
z
" transform="scale(0.015625)"/>
       <path id="DejaVuSans-70" d="M 1159 525 
L 1159 -1331 
L 581 -1331 
L 581 3500 
L 1159 3500 
L 1159 2969 
Q 1341 3281 1617 3432 
Q 1894 3584 2278 3584 
Q 2916 3584 3314 3078 
Q 3713 2572 3713 1747 
Q 3713 922 3314 415 
Q 2916 -91 2278 -91 
Q 1894 -91 1617 61 
Q 1341 213 1159 525 
z
M 3116 1747 
Q 3116 2381 2855 2742 
Q 2594 3103 2138 3103 
Q 1681 3103 1420 2742 
Q 1159 2381 1159 1747 
Q 1159 1113 1420 752 
Q 1681 391 2138 391 
Q 2594 391 2855 752 
Q 3116 1113 3116 1747 
z
" transform="scale(0.015625)"/>
      </defs>
      <use xlink:href="#DejaVuSans-53"/>
      <use xlink:href="#DejaVuSans-75" transform="translate(63.476562 0)"/>
      <use xlink:href="#DejaVuSans-70" transform="translate(126.855469 0)"/>
      <use xlink:href="#DejaVuSans-70" transform="translate(190.332031 0)"/>
      <use xlink:href="#DejaVuSans-6c" transform="translate(253.808594 0)"/>
      <use xlink:href="#DejaVuSans-69" transform="translate(281.591797 0)"/>
      <use xlink:href="#DejaVuSans-65" transform="translate(309.375 0)"/>
      <use xlink:href="#DejaVuSans-64" transform="translate(370.898438 0)"/>
      <use xlink:href="#DejaVuSans-20" transform="translate(434.375 0)"/>
      <use xlink:href="#DejaVuSans-74" transform="translate(466.162109 0)"/>
      <use xlink:href="#DejaVuSans-6f" transform="translate(505.371094 0)"/>
      <use xlink:href="#DejaVuSans-74" transform="translate(566.552734 0)"/>
      <use xlink:href="#DejaVuSans-61" transform="translate(605.761719 0)"/>
      <use xlink:href="#DejaVuSans-6c" transform="translate(667.041016 0)"/>
     </g>
    </g>
    <g id="line2d_28">
     <path d="M 66.26 53.254687 
L 76.26 53.254687 
L 86.26 53.254687 
" style="fill: none; stroke: #2ca02c; stroke-width: 1.5; stroke-linecap: square"/>
    </g>
    <g id="text_16">
     <!-- Boiler power -->
     <g transform="translate(94.26 56.754687) scale(0.1 -0.1)">
      <defs>
       <path id="DejaVuSans-42" d="M 1259 2228 
L 1259 519 
L 2272 519 
Q 2781 519 3026 730 
Q 3272 941 3272 1375 
Q 3272 1813 3026 2020 
Q 2781 2228 2272 2228 
L 1259 2228 
z
M 1259 4147 
L 1259 2741 
L 2194 2741 
Q 2656 2741 2882 2914 
Q 3109 3088 3109 3444 
Q 3109 3797 2882 3972 
Q 2656 4147 2194 4147 
L 1259 4147 
z
M 628 4666 
L 2241 4666 
Q 2963 4666 3353 4366 
Q 3744 4066 3744 3513 
Q 3744 3084 3544 2831 
Q 3344 2578 2956 2516 
Q 3422 2416 3680 2098 
Q 3938 1781 3938 1306 
Q 3938 681 3513 340 
Q 3088 0 2303 0 
L 628 0 
L 628 4666 
z
" transform="scale(0.015625)"/>
      </defs>
      <use xlink:href="#DejaVuSans-42"/>
      <use xlink:href="#DejaVuSans-6f" transform="translate(68.603516 0)"/>
      <use xlink:href="#DejaVuSans-69" transform="translate(129.785156 0)"/>
      <use xlink:href="#DejaVuSans-6c" transform="translate(157.568359 0)"/>
      <use xlink:href="#DejaVuSans-65" transform="translate(185.351562 0)"/>
      <use xlink:href="#DejaVuSans-72" transform="translate(246.875 0)"/>
      <use xlink:href="#DejaVuSans-20" transform="translate(287.988281 0)"/>
      <use xlink:href="#DejaVuSans-70" transform="translate(319.775391 0)"/>
      <use xlink:href="#DejaVuSans-6f" transform="translate(383.251953 0)"/>
      <use xlink:href="#DejaVuSans-77" transform="translate(444.433594 0)"/>
      <use xlink:href="#DejaVuSans-65" transform="translate(526.220703 0)"/>
      <use xlink:href="#DejaVuSans-72" transform="translate(587.744141 0)"/>
     </g>
    </g>
   </g>
  </g>
 </g>
 <defs>
  <clipPath id="p1b9ffcbd3d">
   <rect x="57.26" y="10.8" width="502.531819" height="235.24"/>
  </clipPath>
 </defs>
</svg>
