<?xml version="1.0" encoding="utf-8" standalone="no"?>
<!DOCTYPE svg PUBLIC "-//W3C//DTD SVG 1.1//EN"
  "http://www.w3.org/Graphics/SVG/1.1/DTD/svg11.dtd">
<svg xmlns:xlink="http://www.w3.org/1999/xlink" width="576pt" height="288pt" viewBox="0 0 576 288" xmlns="http://www.w3.org/2000/svg" version="1.1">
 <metadata>
  <rdf:RDF xmlns:dc="http://purl.org/dc/elements/1.1/" xmlns:cc="http://creativecommons.org/ns#" xmlns:rdf="http://www.w3.org/1999/02/22-rdf-syntax-ns#">
   <cc:Work>
    <dc:type rdf:resource="http://purl.org/dc/dcmitype/StillImage"/>
    <dc:date>2025-12-12T22:10:38.008158</dc:date>
    <dc:format>image/svg+xml</dc:format>
    <dc:creator>
     <cc:Agent>
      <dc:title>Matplotlib v3.10.7, https://matplotlib.org/</dc:title>
     </cc:Agent>
    </dc:creator>
   </cc:Work>
  </rdf:RDF>
 </metadata>
 <defs>
  <style type="text/css">*{stroke-linejoin: round; stroke-linecap: butt}</style>
 </defs>
 <g id="figure_1">
  <g id="patch_1">
   <path d="M 0 288 
L 576 288 
L 576 0 
L 0 0 
L 0 288 
z
" style="fill: none"/>
  </g>
  <g id="axes_1">
   <g id="patch_2">
    <path d="M 57.26 246.04 
L 559.791819 246.04 
L 559.791819 10.8 
L 57.26 10.8 
L 57.26 246.04 
z
" style="fill: none"/>
   </g>
   <g id="matplotlib.axis_1">
    <g id="xtick_1">
     <g id="line2d_1">
      <path d="M 122.019943 246.04 
L 122.019943 10.8 
" clip-path="url(#pb1eb0d4190)" style="fill: none; stroke: #b0b0b0; stroke-width: 0.8; stroke-linecap: square"/>
     </g>
     <g id="line2d_2">
      <defs>
       <path id="m6dac41c426" d="M 0 0 
L 0 3.5 
" style="stroke: #000000; stroke-width: 0.8"/>
      </defs>
      <g>
       <use xlink:href="#m6dac41c426" x="122.019943" y="246.04" style="stroke: #000000; stroke-width: 0.8"/>
      </g>
     </g>
     <g id="text_1">
      <!-- 5 -->
      <g transform="translate(118.838693 260.638438) scale(0.1 -0.1)">
       <defs>
        <path id="DejaVuSans-35" d="M 691 4666 
L 3169 4666 
L 3169 4134 
L 1269 4134 
L 1269 2991 
Q 1406 3038 1543 3061 
Q 1681 3084 1819 3084 
Q 2600 3084 3056 2656 
Q 3513 2228 3513 1497 
Q 3513 744 3044 326 
Q 2575 -91 1722 -91 
Q 1428 -91 1123 -41 
Q 819 9 494 109 
L 494 744 
Q 775 591 1075 516 
Q 1375 441 1709 441 
Q 2250 441 2565 725 
Q 2881 1009 2881 1497 
Q 2881 1984 2565 2268 
Q 2250 2553 1709 2553 
Q 1456 2553 1204 2497 
Q 953 2441 691 2322 
L 691 4666 
z
" transform="scale(0.015625)"/>
       </defs>
       <use xlink:href="#DejaVuSans-35"/>
      </g>
     </g>
    </g>
    <g id="xtick_2">
     <g id="line2d_3">
      <path d="M 231.211922 246.04 
L 231.211922 10.8 
" clip-path="url(#pb1eb0d4190)" style="fill: none; stroke: #b0b0b0; stroke-width: 0.8; stroke-linecap: square"/>
     </g>
     <g id="line2d_4">
      <g>
       <use xlink:href="#m6dac41c426" x="231.211922" y="246.04" style="stroke: #000000; stroke-width: 0.8"/>
      </g>
     </g>
     <g id="text_2">
      <!-- 10 -->
      <g transform="translate(224.849422 260.638438) scale(0.1 -0.1)">
       <defs>
        <path id="DejaVuSans-31" d="M 794 531 
L 1825 531 
L 1825 4091 
L 703 3866 
L 703 4441 
L 1819 4666 
L 2450 4666 
L 2450 531 
L 3481 531 
L 3481 0 
L 794 0 
L 794 531 
z
" transform="scale(0.015625)"/>
        <path id="DejaVuSans-30" d="M 2034 4250 
Q 1547 4250 1301 3770 
Q 1056 3291 1056 2328 
Q 1056 1369 1301 889 
Q 1547 409 2034 409 
Q 2525 409 2770 889 
Q 3016 1369 3016 2328 
Q 3016 3291 2770 3770 
Q 2525 4250 2034 4250 
z
M 2034 4750 
Q 2819 4750 3233 4129 
Q 3647 3509 3647 2328 
Q 3647 1150 3233 529 
Q 2819 -91 2034 -91 
Q 1250 -91 836 529 
Q 422 1150 422 2328 
Q 422 3509 836 4129 
Q 1250 4750 2034 4750 
z
" transform="scale(0.015625)"/>
       </defs>
       <use xlink:href="#DejaVuSans-31"/>
       <use xlink:href="#DejaVuSans-30" transform="translate(63.623047 0)"/>
      </g>
     </g>
    </g>
    <g id="xtick_3">
     <g id="line2d_5">
      <path d="M 340.403901 246.04 
L 340.403901 10.8 
" clip-path="url(#pb1eb0d4190)" style="fill: none; stroke: #b0b0b0; stroke-width: 0.8; stroke-linecap: square"/>
     </g>
     <g id="line2d_6">
      <g>
       <use xlink:href="#m6dac41c426" x="340.403901" y="246.04" style="stroke: #000000; stroke-width: 0.8"/>
      </g>
     </g>
     <g id="text_3">
      <!-- 15 -->
      <g transform="translate(334.041401 260.638438) scale(0.1 -0.1)">
       <use xlink:href="#DejaVuSans-31"/>
       <use xlink:href="#DejaVuSans-35" transform="translate(63.623047 0)"/>
      </g>
     </g>
    </g>
    <g id="xtick_4">
     <g id="line2d_7">
      <path d="M 449.595881 246.04 
L 449.595881 10.8 
" clip-path="url(#pb1eb0d4190)" style="fill: none; stroke: #b0b0b0; stroke-width: 0.8; stroke-linecap: square"/>
     </g>
     <g id="line2d_8">
      <g>
       <use xlink:href="#m6dac41c426" x="449.595881" y="246.04" style="stroke: #000000; stroke-width: 0.8"/>
      </g>
     </g>
     <g id="text_4">
      <!-- 20 -->
      <g transform="translate(443.233381 260.638438) scale(0.1 -0.1)">
       <defs>
        <path id="DejaVuSans-32" d="M 1228 531 
L 3431 531 
L 3431 0 
L 469 0 
L 469 531 
Q 828 903 1448 1529 
Q 2069 2156 2228 2338 
Q 2531 2678 2651 2914 
Q 2772 3150 2772 3378 
Q 2772 3750 2511 3984 
Q 2250 4219 1831 4219 
Q 1534 4219 1204 4116 
Q 875 4013 500 3803 
L 500 4441 
Q 881 4594 1212 4672 
Q 1544 4750 1819 4750 
Q 2544 4750 2975 4387 
Q 3406 4025 3406 3419 
Q 3406 3131 3298 2873 
Q 3191 2616 2906 2266 
Q 2828 2175 2409 1742 
Q 1991 1309 1228 531 
z
" transform="scale(0.015625)"/>
       </defs>
       <use xlink:href="#DejaVuSans-32"/>
       <use xlink:href="#DejaVuSans-30" transform="translate(63.623047 0)"/>
      </g>
     </g>
    </g>
    <g id="xtick_5">
     <g id="line2d_9">
      <path d="M 558.78786 246.04 
L 558.78786 10.8 
" clip-path="url(#pb1eb0d4190)" style="fill: none; stroke: #b0b0b0; stroke-width: 0.8; stroke-linecap: square"/>
     </g>
     <g id="line2d_10">
      <g>
       <use xlink:href="#m6dac41c426" x="558.78786" y="246.04" style="stroke: #000000; stroke-width: 0.8"/>
      </g>
     </g>
     <g id="text_5">
      <!-- 25 -->
      <g transform="translate(552.42536 260.638438) scale(0.1 -0.1)">
       <use xlink:href="#DejaVuSans-32"/>
       <use xlink:href="#DejaVuSans-35" transform="translate(63.623047 0)"/>
      </g>
     </g>
    </g>
    <g id="text_6">
     <!-- Time (h) -->
     <g transform="translate(287.632941 274.316562) scale(0.1 -0.1)">
      <defs>
       <path id="DejaVuSans-54" d="M -19 4666 
L 3928 4666 
L 3928 4134 
L 2272 4134 
L 2272 0 
L 1638 0 
L 1638 4134 
L -19 4134 
L -19 4666 
z
" transform="scale(0.015625)"/>
       <path id="DejaVuSans-69" d="M 603 3500 
L 1178 3500 
L 1178 0 
L 603 0 
L 603 3500 
z
M 603 4863 
L 1178 4863 
L 1178 4134 
L 603 4134 
L 603 4863 
z
" transform="scale(0.015625)"/>
       <path id="DejaVuSans-6d" d="M 3328 2828 
Q 3544 3216 3844 3400 
Q 4144 3584 4550 3584 
Q 5097 3584 5394 3201 
Q 5691 2819 5691 2113 
L 5691 0 
L 5113 0 
L 5113 2094 
Q 5113 2597 4934 2840 
Q 4756 3084 4391 3084 
Q 3944 3084 3684 2787 
Q 3425 2491 3425 1978 
L 3425 0 
L 2847 0 
L 2847 2094 
Q 2847 2600 2669 2842 
Q 2491 3084 2119 3084 
Q 1678 3084 1418 2786 
Q 1159 2488 1159 1978 
L 1159 0 
L 581 0 
L 581 3500 
L 1159 3500 
L 1159 2956 
Q 1356 3278 1631 3431 
Q 1906 3584 2284 3584 
Q 2666 3584 2933 3390 
Q 3200 3197 3328 2828 
z
" transform="scale(0.015625)"/>
       <path id="DejaVuSans-65" d="M 3597 1894 
L 3597 1613 
L 953 1613 
Q 991 1019 1311 708 
Q 1631 397 2203 397 
Q 2534 397 2845 478 
Q 3156 559 3463 722 
L 3463 178 
Q 3153 47 2828 -22 
Q 2503 -91 2169 -91 
Q 1331 -91 842 396 
Q 353 884 353 1716 
Q 353 2575 817 3079 
Q 1281 3584 2069 3584 
Q 2775 3584 3186 3129 
Q 3597 2675 3597 1894 
z
M 3022 2063 
Q 3016 2534 2758 2815 
Q 2500 3097 2075 3097 
Q 1594 3097 1305 2825 
Q 1016 2553 972 2059 
L 3022 2063 
z
" transform="scale(0.015625)"/>
       <path id="DejaVuSans-20" transform="scale(0.015625)"/>
       <path id="DejaVuSans-28" d="M 1984 4856 
Q 1566 4138 1362 3434 
Q 1159 2731 1159 2009 
Q 1159 1288 1364 580 
Q 1569 -128 1984 -844 
L 1484 -844 
Q 1016 -109 783 600 
Q 550 1309 550 2009 
Q 550 2706 781 3412 
Q 1013 4119 1484 4856 
L 1984 4856 
z
" transform="scale(0.015625)"/>
       <path id="DejaVuSans-68" d="M 3513 2113 
L 3513 0 
L 2938 0 
L 2938 2094 
Q 2938 2591 2744 2837 
Q 2550 3084 2163 3084 
Q 1697 3084 1428 2787 
Q 1159 2491 1159 1978 
L 1159 0 
L 581 0 
L 581 4863 
L 1159 4863 
L 1159 2956 
Q 1366 3272 1645 3428 
Q 1925 3584 2291 3584 
Q 2894 3584 3203 3211 
Q 3513 2838 3513 2113 
z
" transform="scale(0.015625)"/>
       <path id="DejaVuSans-29" d="M 513 4856 
L 1013 4856 
Q 1481 4119 1714 3412 
Q 1947 2706 1947 2009 
Q 1947 1309 1714 600 
Q 1481 -109 1013 -844 
L 513 -844 
Q 928 -128 1133 580 
Q 1338 1288 1338 2009 
Q 1338 2731 1133 3434 
Q 928 4138 513 4856 
z
" transform="scale(0.015625)"/>
      </defs>
      <use xlink:href="#DejaVuSans-54"/>
      <use xlink:href="#DejaVuSans-69" transform="translate(57.958984 0)"/>
      <use xlink:href="#DejaVuSans-6d" transform="translate(85.742188 0)"/>
      <use xlink:href="#DejaVuSans-65" transform="translate(183.154297 0)"/>
      <use xlink:href="#DejaVuSans-20" transform="translate(244.677734 0)"/>
      <use xlink:href="#DejaVuSans-28" transform="translate(276.464844 0)"/>
      <use xlink:href="#DejaVuSans-68" transform="translate(315.478516 0)"/>
      <use xlink:href="#DejaVuSans-29" transform="translate(378.857422 0)"/>
     </g>
    </g>
   </g>
   <g id="matplotlib.axis_2">
    <g id="ytick_1">
     <g id="line2d_11">
      <path d="M 57.26 237.473666 
L 559.791819 237.473666 
" clip-path="url(#pb1eb0d4190)" style="fill: none; stroke: #b0b0b0; stroke-width: 0.8; stroke-linecap: square"/>
     </g>
     <g id="line2d_12">
      <defs>
       <path id="m73b164b110" d="M 0 0 
L -3.5 0 
" style="stroke: #000000; stroke-width: 0.8"/>
      </defs>
      <g>
       <use xlink:href="#m73b164b110" x="57.26" y="237.473666" style="stroke: #000000; stroke-width: 0.8"/>
      </g>
     </g>
     <g id="text_7">
      <!-- 1000 -->
      <g transform="translate(24.81 241.272885) scale(0.1 -0.1)">
       <use xlink:href="#DejaVuSans-31"/>
       <use xlink:href="#DejaVuSans-30" transform="translate(63.623047 0)"/>
       <use xlink:href="#DejaVuSans-30" transform="translate(127.246094 0)"/>
       <use xlink:href="#DejaVuSans-30" transform="translate(190.869141 0)"/>
      </g>
     </g>
    </g>
    <g id="ytick_2">
     <g id="line2d_13">
      <path d="M 57.26 205.996088 
L 559.791819 205.996088 
" clip-path="url(#pb1eb0d4190)" style="fill: none; stroke: #b0b0b0; stroke-width: 0.8; stroke-linecap: square"/>
     </g>
     <g id="line2d_14">
      <g>
       <use xlink:href="#m73b164b110" x="57.26" y="205.996088" style="stroke: #000000; stroke-width: 0.8"/>
      </g>
     </g>
     <g id="text_8">
      <!-- 1200 -->
      <g transform="translate(24.81 209.795307) scale(0.1 -0.1)">
       <use xlink:href="#DejaVuSans-31"/>
       <use xlink:href="#DejaVuSans-32" transform="translate(63.623047 0)"/>
       <use xlink:href="#DejaVuSans-30" transform="translate(127.246094 0)"/>
       <use xlink:href="#DejaVuSans-30" transform="translate(190.869141 0)"/>
      </g>
     </g>
    </g>
    <g id="ytick_3">
     <g id="line2d_15">
      <path d="M 57.26 174.51851 
L 559.791819 174.51851 
" clip-path="url(#pb1eb0d4190)" style="fill: none; stroke: #b0b0b0; stroke-width: 0.8; stroke-linecap: square"/>
     </g>
     <g id="line2d_16">
      <g>
       <use xlink:href="#m73b164b110" x="57.26" y="174.51851" style="stroke: #000000; stroke-width: 0.8"/>
      </g>
     </g>
     <g id="text_9">
      <!-- 1400 -->
      <g transform="translate(24.81 178.317729) scale(0.1 -0.1)">
       <defs>
        <path id="DejaVuSans-34" d="M 2419 4116 
L 825 1625 
L 2419 1625 
L 2419 4116 
z
M 2253 4666 
L 3047 4666 
L 3047 1625 
L 3713 1625 
L 3713 1100 
L 3047 1100 
L 3047 0 
L 2419 0 
L 2419 1100 
L 313 1100 
L 313 1709 
L 2253 4666 
z
" transform="scale(0.015625)"/>
       </defs>
       <use xlink:href="#DejaVuSans-31"/>
       <use xlink:href="#DejaVuSans-34" transform="translate(63.623047 0)"/>
       <use xlink:href="#DejaVuSans-30" transform="translate(127.246094 0)"/>
       <use xlink:href="#DejaVuSans-30" transform="translate(190.869141 0)"/>
      </g>
     </g>
    </g>
    <g id="ytick_4">
     <g id="line2d_17">
      <path d="M 57.26 143.040932 
L 559.791819 143.040932 
" clip-path="url(#pb1eb0d4190)" style="fill: none; stroke: #b0b0b0; stroke-width: 0.8; stroke-linecap: square"/>
     </g>
     <g id="line2d_18">
      <g>
       <use xlink:href="#m73b164b110" x="57.26" y="143.040932" style="stroke: #000000; stroke-width: 0.8"/>
      </g>
     </g>
     <g id="text_10">
      <!-- 1600 -->
      <g transform="translate(24.81 146.84015) scale(0.1 -0.1)">
       <defs>
        <path id="DejaVuSans-36" d="M 2113 2584 
Q 1688 2584 1439 2293 
Q 1191 2003 1191 1497 
Q 1191 994 1439 701 
Q 1688 409 2113 409 
Q 2538 409 2786 701 
Q 3034 994 3034 1497 
Q 3034 2003 2786 2293 
Q 2538 2584 2113 2584 
z
M 3366 4563 
L 3366 3988 
Q 3128 4100 2886 4159 
Q 2644 4219 2406 4219 
Q 1781 4219 1451 3797 
Q 1122 3375 1075 2522 
Q 1259 2794 1537 2939 
Q 1816 3084 2150 3084 
Q 2853 3084 3261 2657 
Q 3669 2231 3669 1497 
Q 3669 778 3244 343 
Q 2819 -91 2113 -91 
Q 1303 -91 875 529 
Q 447 1150 447 2328 
Q 447 3434 972 4092 
Q 1497 4750 2381 4750 
Q 2619 4750 2861 4703 
Q 3103 4656 3366 4563 
z
" transform="scale(0.015625)"/>
       </defs>
       <use xlink:href="#DejaVuSans-31"/>
       <use xlink:href="#DejaVuSans-36" transform="translate(63.623047 0)"/>
       <use xlink:href="#DejaVuSans-30" transform="translate(127.246094 0)"/>
       <use xlink:href="#DejaVuSans-30" transform="translate(190.869141 0)"/>
      </g>
     </g>
    </g>
    <g id="ytick_5">
     <g id="line2d_19">
      <path d="M 57.26 111.563353 
L 559.791819 111.563353 
" clip-path="url(#pb1eb0d4190)" style="fill: none; stroke: #b0b0b0; stroke-width: 0.8; stroke-linecap: square"/>
     </g>
     <g id="line2d_20">
      <g>
       <use xlink:href="#m73b164b110" x="57.26" y="111.563353" style="stroke: #000000; stroke-width: 0.8"/>
      </g>
     </g>
     <g id="text_11">
      <!-- 1800 -->
      <g transform="translate(24.81 115.362572) scale(0.1 -0.1)">
       <defs>
        <path id="DejaVuSans-38" d="M 2034 2216 
Q 1584 2216 1326 1975 
Q 1069 1734 1069 1313 
Q 1069 891 1326 650 
Q 1584 409 2034 409 
Q 2484 409 2743 651 
Q 3003 894 3003 1313 
Q 3003 1734 2745 1975 
Q 2488 2216 2034 2216 
z
M 1403 2484 
Q 997 2584 770 2862 
Q 544 3141 544 3541 
Q 544 4100 942 4425 
Q 1341 4750 2034 4750 
Q 2731 4750 3128 4425 
Q 3525 4100 3525 3541 
Q 3525 3141 3298 2862 
Q 3072 2584 2669 2484 
Q 3125 2378 3379 2068 
Q 3634 1759 3634 1313 
Q 3634 634 3220 271 
Q 2806 -91 2034 -91 
Q 1263 -91 848 271 
Q 434 634 434 1313 
Q 434 1759 690 2068 
Q 947 2378 1403 2484 
z
M 1172 3481 
Q 1172 3119 1398 2916 
Q 1625 2713 2034 2713 
Q 2441 2713 2670 2916 
Q 2900 3119 2900 3481 
Q 2900 3844 2670 4047 
Q 2441 4250 2034 4250 
Q 1625 4250 1398 4047 
Q 1172 3844 1172 3481 
z
" transform="scale(0.015625)"/>
       </defs>
       <use xlink:href="#DejaVuSans-31"/>
       <use xlink:href="#DejaVuSans-38" transform="translate(63.623047 0)"/>
       <use xlink:href="#DejaVuSans-30" transform="translate(127.246094 0)"/>
       <use xlink:href="#DejaVuSans-30" transform="translate(190.869141 0)"/>
      </g>
     </g>
    </g>
    <g id="ytick_6">
     <g id="line2d_21">
      <path d="M 57.26 80.085775 
L 559.791819 80.085775 
" clip-path="url(#pb1eb0d4190)" style="fill: none; stroke: #b0b0b0; stroke-width: 0.8; stroke-linecap: square"/>
     </g>
     <g id="line2d_22">
      <g>
       <use xlink:href="#m73b164b110" x="57.26" y="80.085775" style="stroke: #000000; stroke-width: 0.8"/>
      </g>
     </g>
     <g id="text_12">
      <!-- 2000 -->
      <g transform="translate(24.81 83.884994) scale(0.1 -0.1)">
       <use xlink:href="#DejaVuSans-32"/>
       <use xlink:href="#DejaVuSans-30" transform="translate(63.623047 0)"/>
       <use xlink:href="#DejaVuSans-30" transform="translate(127.246094 0)"/>
       <use xlink:href="#DejaVuSans-30" transform="translate(190.869141 0)"/>
      </g>
     </g>
    </g>
    <g id="ytick_7">
     <g id="line2d_23">
      <path d="M 57.26 48.608197 
L 559.791819 48.608197 
" clip-path="url(#pb1eb0d4190)" style="fill: none; stroke: #b0b0b0; stroke-width: 0.8; stroke-linecap: square"/>
     </g>
     <g id="line2d_24">
      <g>
       <use xlink:href="#m73b164b110" x="57.26" y="48.608197" style="stroke: #000000; stroke-width: 0.8"/>
      </g>
     </g>
     <g id="text_13">
      <!-- 2200 -->
      <g transform="translate(24.81 52.407416) scale(0.1 -0.1)">
       <use xlink:href="#DejaVuSans-32"/>
       <use xlink:href="#DejaVuSans-32" transform="translate(63.623047 0)"/>
       <use xlink:href="#DejaVuSans-30" transform="translate(127.246094 0)"/>
       <use xlink:href="#DejaVuSans-30" transform="translate(190.869141 0)"/>
      </g>
     </g>
    </g>
    <g id="ytick_8">
     <g id="line2d_25">
      <path d="M 57.26 17.130619 
L 559.791819 17.130619 
" clip-path="url(#pb1eb0d4190)" style="fill: none; stroke: #b0b0b0; stroke-width: 0.8; stroke-linecap: square"/>
     </g>
     <g id="line2d_26">
      <g>
       <use xlink:href="#m73b164b110" x="57.26" y="17.130619" style="stroke: #000000; stroke-width: 0.8"/>
      </g>
     </g>
     <g id="text_14">
      <!-- 2400 -->
      <g transform="translate(24.81 20.929838) scale(0.1 -0.1)">
       <use xlink:href="#DejaVuSans-32"/>
       <use xlink:href="#DejaVuSans-34" transform="translate(63.623047 0)"/>
       <use xlink:href="#DejaVuSans-30" transform="translate(127.246094 0)"/>
       <use xlink:href="#DejaVuSans-30" transform="translate(190.869141 0)"/>
      </g>
     </g>
    </g>
    <g id="text_15">
     <!-- Power (kW) -->
     <g transform="translate(18.730313 156.86375) rotate(-90) scale(0.1 -0.1)">
      <defs>
       <path id="DejaVuSans-50" d="M 1259 4147 
L 1259 2394 
L 2053 2394 
Q 2494 2394 2734 2622 
Q 2975 2850 2975 3272 
Q 2975 3691 2734 3919 
Q 2494 4147 2053 4147 
L 1259 4147 
z
M 628 4666 
L 2053 4666 
Q 2838 4666 3239 4311 
Q 3641 3956 3641 3272 
Q 3641 2581 3239 2228 
Q 2838 1875 2053 1875 
L 1259 1875 
L 1259 0 
L 628 0 
L 628 4666 
z
" transform="scale(0.015625)"/>
       <path id="DejaVuSans-6f" d="M 1959 3097 
Q 1497 3097 1228 2736 
Q 959 2375 959 1747 
Q 959 1119 1226 758 
Q 1494 397 1959 397 
Q 2419 397 2687 759 
Q 2956 1122 2956 1747 
Q 2956 2369 2687 2733 
Q 2419 3097 1959 3097 
z
M 1959 3584 
Q 2709 3584 3137 3096 
Q 3566 2609 3566 1747 
Q 3566 888 3137 398 
Q 2709 -91 1959 -91 
Q 1206 -91 779 398 
Q 353 888 353 1747 
Q 353 2609 779 3096 
Q 1206 3584 1959 3584 
z
" transform="scale(0.015625)"/>
       <path id="DejaVuSans-77" d="M 269 3500 
L 844 3500 
L 1563 769 
L 2278 3500 
L 2956 3500 
L 3675 769 
L 4391 3500 
L 4966 3500 
L 4050 0 
L 3372 0 
L 2619 2869 
L 1863 0 
L 1184 0 
L 269 3500 
z
" transform="scale(0.015625)"/>
       <path id="DejaVuSans-72" d="M 2631 2963 
Q 2534 3019 2420 3045 
Q 2306 3072 2169 3072 
Q 1681 3072 1420 2755 
Q 1159 2438 1159 1844 
L 1159 0 
L 581 0 
L 581 3500 
L 1159 3500 
L 1159 2956 
Q 1341 3275 1631 3429 
Q 1922 3584 2338 3584 
Q 2397 3584 2469 3576 
Q 2541 3569 2628 3553 
L 2631 2963 
z
" transform="scale(0.015625)"/>
       <path id="DejaVuSans-6b" d="M 581 4863 
L 1159 4863 
L 1159 1991 
L 2875 3500 
L 3609 3500 
L 1753 1863 
L 3688 0 
L 2938 0 
L 1159 1709 
L 1159 0 
L 581 0 
L 581 4863 
z
" transform="scale(0.015625)"/>
       <path id="DejaVuSans-57" d="M 213 4666 
L 850 4666 
L 1831 722 
L 2809 4666 
L 3519 4666 
L 4500 722 
L 5478 4666 
L 6119 4666 
L 4947 0 
L 4153 0 
L 3169 4050 
L 2175 0 
L 1381 0 
L 213 4666 
z
" transform="scale(0.015625)"/>
      </defs>
      <use xlink:href="#DejaVuSans-50"/>
      <use xlink:href="#DejaVuSans-6f" transform="translate(56.677734 0)"/>
      <use xlink:href="#DejaVuSans-77" transform="translate(117.859375 0)"/>
      <use xlink:href="#DejaVuSans-65" transform="translate(199.646484 0)"/>
      <use xlink:href="#DejaVuSans-72" transform="translate(261.169922 0)"/>
      <use xlink:href="#DejaVuSans-20" transform="translate(302.283203 0)"/>
      <use xlink:href="#DejaVuSans-28" transform="translate(334.070312 0)"/>
      <use xlink:href="#DejaVuSans-6b" transform="translate(373.083984 0)"/>
      <use xlink:href="#DejaVuSans-57" transform="translate(430.994141 0)"/>
      <use xlink:href="#DejaVuSans-29" transform="translate(529.871094 0)"/>
     </g>
    </g>
   </g>
   <g id="line2d_27">
    <path d="M 80.102355 67.133277 
L 81.376262 67.61887 
L 82.043546 67.88912 
L 86.775199 69.828099 
L 87.442483 70.119685 
L 88.716389 70.567632 
L 93.326717 72.478946 
L 93.751353 72.691315 
L 99.878236 75.193137 
L 102.122738 76.328312 
L 104.36724 77.844702 
L 106.85439 79.752659 
L 107.157701 79.850503 
L 110.797434 82.687977 
L 110.979421 82.780166 
L 120.139414 89.623361 
L 120.321401 89.716964 
L 125.295702 93.69208 
L 130.330666 98.241737 
L 145.192907 111.310903 
L 146.406152 112.011549 
L 167.152628 111.407689 
L 169.518454 110.029543 
L 170.79236 109.094277 
L 171.035009 108.989732 
L 172.854876 107.526105 
L 173.036862 107.42156 
L 174.856728 105.957933 
L 175.099377 105.853388 
L 176.919244 104.389761 
L 177.161892 104.285216 
L 178.981759 102.821589 
L 179.28507 102.713753 
L 181.104936 101.204058 
L 181.408247 101.096223 
L 183.228114 99.586528 
L 183.470762 99.478693 
L 185.290629 97.968998 
L 185.59394 97.861162 
L 187.413806 96.351467 
L 187.777779 96.248692 
L 189.597646 94.809837 
L 201.79075 94.698917 
L 211.375379 94.503434 
L 213.195246 93.495962 
L 213.377232 93.411944 
L 215.257761 92.235683 
L 215.439747 92.151665 
L 217.320276 90.975404 
L 217.502263 90.891386 
L 219.382791 89.715125 
L 219.564778 89.631107 
L 221.445306 88.454847 
L 221.627293 88.370724 
L 223.507821 87.193015 
L 223.689808 87.108893 
L 225.570337 85.931184 
L 225.752323 85.847062 
L 227.632852 84.669352 
L 227.814838 84.58523 
L 229.695367 83.407521 
L 229.938016 83.319767 
L 231.818544 82.091217 
L 232.121855 82.006955 
L 234.002384 80.827277 
L 234.245033 80.748839 
L 236.125561 79.650699 
L 236.428872 79.572261 
L 239.643969 77.622173 
L 254.566873 69.437433 
L 257.357335 63.82514 
L 261.239716 55.214677 
L 263.423556 50.448945 
L 263.726867 49.571047 
L 266.759978 43.04952 
L 267.123951 41.951878 
L 268.519182 38.946044 
L 268.761831 38.344877 
L 270.157061 35.339043 
L 270.39971 34.737876 
L 271.794941 31.732042 
L 272.03759 31.130875 
L 273.432821 28.239967 
L 273.67547 27.617572 
L 276.405269 22.217382 
L 276.890567 21.492727 
L 280.166326 24.269678 
L 280.590962 24.725005 
L 281.743544 25.695103 
L 282.107517 26.047865 
L 283.320761 27.062058 
L 283.624072 27.32663 
L 284.837316 28.340822 
L 285.20129 28.693585 
L 286.414534 29.669871 
L 286.717845 29.949915 
L 289.629631 32.309403 
L 290.054266 32.781301 
L 291.388835 33.913855 
L 291.692146 34.196993 
L 294.725257 36.681895 
L 295.08923 37.081763 
L 298.6683 39.89742 
L 302.308033 40.78305 
L 305.887103 41.537075 
L 306.797037 41.753165 
L 310.436769 42.506601 
L 311.346702 42.721869 
L 314.379813 43.372346 
L 319.414776 44.428333 
L 320.264047 44.608623 
L 321.71994 47.922688 
L 325.299011 56.280476 
L 325.784309 57.927514 
L 326.936891 60.452696 
L 327.300864 61.534916 
L 328.453446 64.060098 
L 328.817419 65.142319 
L 329.970001 67.6675 
L 330.333974 68.749721 
L 331.547219 71.397501 
L 331.85053 72.245108 
L 333.063774 74.916407 
L 333.427747 76.009211 
L 334.640991 78.680509 
L 334.944302 79.530468 
L 336.157547 82.201767 
L 336.52152 83.294571 
L 337.734764 85.852434 
L 338.038075 86.74233 
L 339.433306 89.977581 
L 339.675955 90.624631 
L 341.313834 93.904658 
L 342.709065 94.579344 
L 343.133701 93.763029 
L 344.407607 90.851958 
L 344.650256 90.21918 
L 346.045487 87.055381 
L 346.288136 86.422622 
L 347.683367 83.258823 
L 347.926015 82.626063 
L 349.321246 79.462264 
L 349.563895 78.829504 
L 350.898464 75.804715 
L 351.201775 74.949996 
L 352.475681 72.182568 
L 352.778992 71.340307 
L 353.992237 68.693201 
L 354.35621 67.610294 
L 355.569454 64.963189 
L 355.872765 64.120928 
L 357.146671 61.469091 
L 357.449983 60.603178 
L 358.845213 57.47684 
L 359.087862 56.851572 
L 360.422431 53.850288 
L 360.725742 52.974913 
L 362.060311 49.973629 
L 362.302959 49.348361 
L 363.819515 46.371829 
L 365.760705 46.869451 
L 374.314077 52.326233 
L 386.567844 60.02252 
L 388.509034 60.622149 
L 389.176319 60.851943 
L 391.542145 61.602605 
L 392.391416 61.887681 
L 392.998038 62.119509 
L 394.332607 62.546559 
L 395.303202 62.851595 
L 395.970486 63.010214 
L 396.637771 63.257191 
L 397.851015 63.645964 
L 398.396975 63.784812 
L 399.974192 64.256893 
L 401.00545 64.617896 
L 402.703992 65.118575 
L 404.645182 65.74292 
L 405.251805 65.951035 
L 406.283062 66.333452 
L 406.829022 66.597562 
L 407.556969 67.047417 
L 409.073524 70.982636 
L 409.498159 72.292217 
L 410.165444 73.38319 
L 410.468755 73.915333 
L 411.014715 75.399899 
L 411.863985 77.287563 
L 412.409945 78.996038 
L 413.259216 80.763431 
L 413.744514 82.199437 
L 414.593785 83.966829 
L 415.139745 85.623759 
L 415.928354 87.28069 
L 416.474313 88.93762 
L 417.74822 91.47089 
L 422.904508 103.926327 
L 423.147157 104.650481 
L 424.785036 108.416078 
L 424.967023 108.416078 
L 426.847552 113.491788 
L 427.029538 113.491788 
L 428.910067 118.567498 
L 429.456027 118.674052 
L 431.154568 119.100267 
L 433.095759 117.379804 
L 433.39907 117.319948 
L 435.279599 115.584117 
L 435.58291 115.524261 
L 437.463438 113.788431 
L 437.706087 113.728574 
L 439.586616 111.992744 
L 439.889927 111.932888 
L 441.770455 110.197057 
L 442.073766 110.13599 
L 443.954295 108.365031 
L 444.257606 108.303963 
L 446.138134 106.533005 
L 446.502108 106.471937 
L 448.382636 104.700978 
L 448.685947 104.639911 
L 450.566476 102.868952 
L 451.051774 102.808054 
L 452.932302 101.042021 
L 453.356938 100.983806 
L 455.237466 99.295576 
L 455.722764 99.237361 
L 457.603292 97.54913 
L 458.027928 97.490915 
L 459.908456 95.802685 
L 460.211767 95.699434 
L 462.031634 94.253915 
L 462.274283 94.150663 
L 464.094149 92.705144 
L 464.336798 92.601893 
L 466.156664 91.156374 
L 466.399313 91.053123 
L 468.219179 89.607604 
L 468.401166 89.507569 
L 470.221032 88.107084 
L 470.463681 88.007049 
L 472.283547 86.606564 
L 472.586858 86.497385 
L 474.406725 85.787009 
L 495.274525 85.632918 
L 497.155054 87.401405 
L 497.943662 87.485281 
L 499.824191 89.917709 
L 500.6128 90.001585 
L 502.493328 92.434013 
L 503.342599 92.517889 
L 505.223128 94.950317 
L 506.133061 95.037568 
L 508.013589 97.567864 
L 508.923523 97.655116 
L 510.804051 100.185412 
L 511.713984 100.272664 
L 513.594513 102.80296 
L 514.504446 102.890212 
L 516.384974 105.420508 
L 517.476894 105.508013 
L 519.357423 106.733081 
L 520.449343 106.82495 
L 522.329871 107.651768 
L 523.421791 107.743637 
L 525.302319 108.570455 
L 526.333577 108.662324 
L 528.214106 109.489142 
L 528.942052 109.59703 
L 530.761918 110.298305 
L 531.550527 110.406193 
L 533.370393 111.107468 
L 534.09834 111.215356 
L 535.918206 111.916631 
L 536.646153 112.024519 
L 536.949464 112.164541 
L 536.949464 112.164541 
" clip-path="url(#pb1eb0d4190)" style="fill: none; stroke: #1f77b4; stroke-width: 1.5; stroke-linecap: square"/>
   </g>
   <g id="line2d_28">
    <path d="M 80.102355 160.441127 
L 82.286195 159.637359 
L 84.227386 159.554971 
L 85.501292 159.587565 
L 86.593212 157.165172 
L 86.714536 157.222838 
L 87.321158 157.610497 
L 88.534403 160.707403 
L 90.050958 161.470217 
L 93.38738 164.760673 
L 93.630028 164.986461 
L 95.571219 166.221345 
L 97.330423 167.117233 
L 101.63744 169.138451 
L 103.032671 170.138836 
L 103.153995 170.244162 
L 106.85439 176.544355 
L 107.097039 176.645599 
L 109.03823 179.674132 
L 111.343394 182.988085 
L 114.437167 186.842169 
L 115.89306 188.418884 
L 118.258886 190.949389 
L 118.38021 191.017051 
L 124.264445 197.74159 
L 129.299408 205.244536 
L 131.361923 208.440409 
L 134.759007 214.255076 
L 137.792118 219.84441 
L 140.400593 224.575344 
L 140.461255 224.575344 
L 142.402446 228.557389 
L 142.463108 228.557389 
L 144.404299 232.446373 
L 146.345489 234.762685 
L 147.619396 234.872423 
L 153.867604 235.329927 
L 157.386012 234.716929 
L 159.26654 234.216503 
L 163.634219 231.974918 
L 166.788654 230.19924 
L 166.970641 230.116772 
L 169.639778 226.309233 
L 170.79236 224.457574 
L 170.913685 224.457574 
L 172.854876 221.013149 
L 172.915538 221.013149 
L 174.856728 217.655454 
L 175.038715 217.548884 
L 176.919244 214.458351 
L 177.10123 214.356882 
L 178.981759 211.414273 
L 179.224408 211.312291 
L 181.104936 208.354798 
L 181.347585 208.253878 
L 183.228114 205.327217 
L 183.4101 205.228157 
L 185.290629 202.355418 
L 185.533278 202.259791 
L 187.413806 199.48661 
L 187.717117 199.395267 
L 189.597646 196.746301 
L 189.961619 196.648661 
L 191.781485 195.281701 
L 192.145458 195.191668 
L 194.025987 193.931197 
L 194.329298 193.846485 
L 196.209827 192.660507 
L 196.452475 192.579938 
L 198.333004 191.451974 
L 198.575653 191.36938 
L 200.456181 190.213062 
L 200.69883 190.127586 
L 202.579359 188.930922 
L 202.822008 188.843259 
L 204.702536 187.615979 
L 204.945185 187.526246 
L 206.825713 186.269988 
L 207.068362 186.178608 
L 208.948891 184.899279 
L 209.19154 184.805864 
L 211.072068 183.498059 
L 211.314717 183.398402 
L 213.134583 182.003196 
L 213.377232 181.902006 
L 215.197099 180.485339 
L 215.439747 180.381277 
L 217.259614 178.924421 
L 217.502263 178.821084 
L 219.322129 177.374374 
L 219.564778 177.276298 
L 221.384644 175.903222 
L 221.627293 175.812992 
L 223.507821 174.54977 
L 223.689808 174.467172 
L 225.570337 173.310803 
L 225.752323 173.233072 
L 227.632852 172.144835 
L 227.814838 172.068058 
L 229.695367 170.993169 
L 229.938016 170.910497 
L 231.818544 169.753088 
L 232.667815 169.642596 
L 234.18437 169.496765 
L 236.125561 170.802264 
L 236.428872 170.899186 
L 241.827809 175.352102 
L 244.86092 178.525283 
L 246.195488 180.166816 
L 249.53191 184.382326 
L 254.445549 190.632027 
L 254.74886 190.522947 
L 256.690051 189.553106 
L 261.05773 185.941705 
L 262.392298 185.039976 
L 264.333489 184.073474 
L 265.789382 183.208759 
L 266.881302 182.453868 
L 267.245275 182.120758 
L 268.519182 180.966428 
L 268.822493 180.626989 
L 270.157061 179.209386 
L 270.460372 178.797326 
L 271.794941 177.090295 
L 272.098252 176.646574 
L 273.554145 174.685032 
L 276.283945 171.178886 
L 276.890567 170.685635 
L 280.166326 174.936126 
L 280.530299 175.550657 
L 281.682881 176.927918 
L 282.107517 177.584652 
L 283.260099 178.966487 
L 283.624072 179.497513 
L 284.776654 180.898585 
L 285.20129 181.57334 
L 286.353872 182.950024 
L 286.717845 183.610758 
L 288.2344 185.990957 
L 289.750955 188.472103 
L 289.993604 188.931574 
L 291.388835 191.228932 
L 291.631484 191.688403 
L 294.239959 195.840559 
L 298.364989 202.252129 
L 300.30618 202.219822 
L 301.762073 201.867853 
L 303.096642 201.34518 
L 303.581939 201.135254 
L 304.613197 200.613162 
L 305.037833 200.384103 
L 306.06909 199.779479 
L 306.493726 199.473116 
L 307.585645 198.708911 
L 308.010281 198.341317 
L 309.041538 197.522447 
L 309.466174 197.05214 
L 310.558094 196.061527 
L 310.982729 195.535235 
L 312.135311 194.385384 
L 312.499284 193.915651 
L 313.712529 192.590289 
L 314.076502 192.107508 
L 315.350408 190.72145 
L 315.653719 190.366238 
L 316.927626 189.011058 
L 317.291599 188.542386 
L 319.354114 186.403423 
L 320.385372 185.373138 
L 325.480998 189.0478 
L 325.844971 189.366405 
L 326.997553 190.240433 
L 327.361526 190.573443 
L 328.453446 191.427299 
L 328.878081 191.871835 
L 329.970001 192.785534 
L 330.394637 193.263432 
L 331.547219 194.299129 
L 331.911192 194.719898 
L 333.063774 195.859599 
L 333.488409 196.429239 
L 334.640991 197.658769 
L 335.004965 198.140882 
L 336.157547 199.420795 
L 336.582182 200.032141 
L 337.795426 201.38667 
L 338.098737 201.772861 
L 339.433306 203.336455 
L 339.736617 203.735823 
L 341.19251 205.223868 
L 342.648403 204.823237 
L 344.043634 201.065109 
L 344.407607 199.789003 
L 344.650256 199.010208 
L 346.045487 195.164649 
L 346.288136 194.421262 
L 347.683367 190.758218 
L 347.926015 190.058301 
L 349.321246 186.62612 
L 349.563895 185.979277 
L 350.898464 182.959614 
L 351.201775 182.15041 
L 352.475681 179.61284 
L 352.778992 178.873065 
L 353.992237 176.604566 
L 354.35621 175.702314 
L 355.569454 173.539716 
L 355.872765 172.865664 
L 357.207334 170.572415 
L 357.449983 170.086973 
L 358.845213 167.64834 
L 359.087862 167.159351 
L 360.422431 164.808121 
L 360.725742 164.117041 
L 362.060311 161.739321 
L 362.302959 161.243844 
L 363.880177 158.811897 
L 365.88203 158.331341 
L 369.400438 158.4496 
L 372.1909 158.822165 
L 373.768117 159.208353 
L 375.951957 159.921592 
L 379.106392 161.149591 
L 382.07884 162.295091 
L 385.65791 163.812862 
L 387.29579 166.652833 
L 387.599101 167.125784 
L 388.266386 167.822896 
L 388.630359 168.225731 
L 389.115656 169.063534 
L 390.268238 170.681932 
L 390.57155 171.196009 
L 391.481483 172.415311 
L 392.148767 173.513099 
L 392.634065 174.020095 
L 393.362011 174.905544 
L 393.786647 175.311344 
L 394.514593 176.093538 
L 394.939229 176.45168 
L 395.667175 177.141258 
L 396.33446 177.626634 
L 396.819757 178.00881 
L 397.608366 178.517598 
L 398.154326 178.900369 
L 399.003597 179.35243 
L 399.488895 179.589312 
L 400.156179 179.903503 
L 400.944788 180.423 
L 401.612072 180.850412 
L 402.09737 181.304046 
L 403.128627 182.169268 
L 403.553263 182.64283 
L 404.705845 183.696046 
L 405.069818 184.064638 
L 406.2224 185.057357 
L 406.586373 185.410522 
L 407.556969 186.192176 
L 408.466902 187.832574 
L 409.194848 189.323108 
L 409.498159 189.878964 
L 410.226106 190.649202 
L 410.468755 190.941059 
L 411.014715 191.894758 
L 411.863985 193.093518 
L 412.409945 194.156833 
L 413.259216 195.241297 
L 413.805176 196.20697 
L 414.593785 197.274406 
L 415.200407 198.493235 
L 415.928354 199.606361 
L 416.474313 200.775369 
L 417.869544 202.710694 
L 422.479872 209.814452 
L 424.845699 213.095392 
L 425.027685 213.193688 
L 426.908214 216.044265 
L 427.0902 216.139964 
L 428.970729 218.915221 
L 429.395364 219.011899 
L 431.154568 219.495289 
L 433.277746 218.860796 
L 433.581057 218.761462 
L 435.400923 218.115796 
L 435.764896 218.019434 
L 437.584763 217.393078 
L 437.948736 217.289454 
L 439.768602 216.771338 
L 440.193238 216.673626 
L 442.195091 216.247699 
L 444.742904 215.868967 
L 447.594028 215.651326 
L 451.112436 215.372658 
L 452.932302 212.920437 
L 453.296275 212.920437 
L 455.176804 208.705003 
L 455.662102 208.705003 
L 457.603292 204.806541 
L 457.967266 204.806541 
L 459.908456 201.329449 
L 460.151105 201.239305 
L 462.031634 198.62511 
L 462.21362 198.546305 
L 464.094149 196.260938 
L 464.276135 196.19222 
L 466.156664 194.199391 
L 466.338651 194.137868 
L 468.219179 192.353676 
L 468.340504 192.296614 
L 470.221032 190.641819 
L 470.403019 190.584 
L 472.283547 188.90725 
L 472.526196 188.803375 
L 474.346062 187.868495 
L 477.379173 187.796038 
L 482.171488 188.112501 
L 484.415989 188.156686 
L 490.421548 188.092837 
L 495.638498 187.899925 
L 497.397703 187.478298 
L 498.125649 187.386502 
L 500.006178 186.789834 
L 500.855449 186.682885 
L 502.675315 186.148138 
L 503.585248 186.049714 
L 505.405114 185.557594 
L 506.436372 185.450201 
L 508.256238 185.02063 
L 509.226834 184.921024 
L 511.0467 184.5226 
L 511.956633 184.428031 
L 513.837162 183.955185 
L 514.686433 183.859315 
L 516.506299 183.236155 
L 517.476894 183.334705 
L 519.296761 184.714405 
L 520.328018 184.779579 
L 522.208547 186.669627 
L 523.300466 186.726146 
L 525.180995 188.365205 
L 526.272915 188.456 
L 528.153443 189.727134 
L 528.88139 189.820372 
L 530.761918 190.659512 
L 531.550527 190.762835 
L 533.370393 191.434434 
L 534.09834 191.53321 
L 535.918206 192.175257 
L 536.646153 192.283911 
L 536.949464 192.425468 
L 536.949464 192.425468 
" clip-path="url(#pb1eb0d4190)" style="fill: none; stroke: #ff7f0e; stroke-width: 1.5; stroke-linecap: square"/>
   </g>
   <g id="line2d_29">
    <path d="M 80.102355 157.91094 
L 536.949464 157.91094 
L 536.949464 157.91094 
" clip-path="url(#pb1eb0d4190)" style="fill: none; stroke: #2ca02c; stroke-width: 1.5; stroke-linecap: square"/>
   </g>
   <g id="patch_3">
    <path d="M 57.26 246.04 
L 57.26 10.8 
" style="fill: none; stroke: #000000; stroke-width: 0.8; stroke-linejoin: miter; stroke-linecap: square"/>
   </g>
   <g id="patch_4">
    <path d="M 559.791819 246.04 
L 559.791819 10.8 
" style="fill: none; stroke: #000000; stroke-width: 0.8; stroke-linejoin: miter; stroke-linecap: square"/>
   </g>
   <g id="patch_5">
    <path d="M 57.26 246.04 
L 559.791819 246.04 
" style="fill: none; stroke: #000000; stroke-width: 0.8; stroke-linejoin: miter; stroke-linecap: square"/>
   </g>
   <g id="patch_6">
    <path d="M 57.26 10.8 
L 559.791819 10.8 
" style="fill: none; stroke: #000000; stroke-width: 0.8; stroke-linejoin: miter; stroke-linecap: square"/>
   </g>
   <g id="legend_1">
    <g id="patch_7">
     <path d="M 451.307444 62.834375 
L 552.791819 62.834375 
Q 554.791819 62.834375 554.791819 60.834375 
L 554.791819 17.8 
Q 554.791819 15.8 552.791819 15.8 
L 451.307444 15.8 
Q 449.307444 15.8 449.307444 17.8 
L 449.307444 60.834375 
Q 449.307444 62.834375 451.307444 62.834375 
z
" style="fill: #ffffff; opacity: 0.8; stroke: #cccccc; stroke-linejoin: miter"/>
    </g>
    <g id="line2d_30">
     <path d="M 453.307444 23.898438 
L 463.307444 23.898438 
L 473.307444 23.898438 
" style="fill: none; stroke: #1f77b4; stroke-width: 1.5; stroke-linecap: square"/>
    </g>
    <g id="text_16">
     <!-- Demand total -->
     <g transform="translate(481.307444 27.398438) scale(0.1 -0.1)">
      <defs>
       <path id="DejaVuSans-44" d="M 1259 4147 
L 1259 519 
L 2022 519 
Q 2988 519 3436 956 
Q 3884 1394 3884 2338 
Q 3884 3275 3436 3711 
Q 2988 4147 2022 4147 
L 1259 4147 
z
M 628 4666 
L 1925 4666 
Q 3281 4666 3915 4102 
Q 4550 3538 4550 2338 
Q 4550 1131 3912 565 
Q 3275 0 1925 0 
L 628 0 
L 628 4666 
z
" transform="scale(0.015625)"/>
       <path id="DejaVuSans-61" d="M 2194 1759 
Q 1497 1759 1228 1600 
Q 959 1441 959 1056 
Q 959 750 1161 570 
Q 1363 391 1709 391 
Q 2188 391 2477 730 
Q 2766 1069 2766 1631 
L 2766 1759 
L 2194 1759 
z
M 3341 1997 
L 3341 0 
L 2766 0 
L 2766 531 
Q 2569 213 2275 61 
Q 1981 -91 1556 -91 
Q 1019 -91 701 211 
Q 384 513 384 1019 
Q 384 1609 779 1909 
Q 1175 2209 1959 2209 
L 2766 2209 
L 2766 2266 
Q 2766 2663 2505 2880 
Q 2244 3097 1772 3097 
Q 1472 3097 1187 3025 
Q 903 2953 641 2809 
L 641 3341 
Q 956 3463 1253 3523 
Q 1550 3584 1831 3584 
Q 2591 3584 2966 3190 
Q 3341 2797 3341 1997 
z
" transform="scale(0.015625)"/>
       <path id="DejaVuSans-6e" d="M 3513 2113 
L 3513 0 
L 2938 0 
L 2938 2094 
Q 2938 2591 2744 2837 
Q 2550 3084 2163 3084 
Q 1697 3084 1428 2787 
Q 1159 2491 1159 1978 
L 1159 0 
L 581 0 
L 581 3500 
L 1159 3500 
L 1159 2956 
Q 1366 3272 1645 3428 
Q 1925 3584 2291 3584 
Q 2894 3584 3203 3211 
Q 3513 2838 3513 2113 
z
" transform="scale(0.015625)"/>
       <path id="DejaVuSans-64" d="M 2906 2969 
L 2906 4863 
L 3481 4863 
L 3481 0 
L 2906 0 
L 2906 525 
Q 2725 213 2448 61 
Q 2172 -91 1784 -91 
Q 1150 -91 751 415 
Q 353 922 353 1747 
Q 353 2572 751 3078 
Q 1150 3584 1784 3584 
Q 2172 3584 2448 3432 
Q 2725 3281 2906 2969 
z
M 947 1747 
Q 947 1113 1208 752 
Q 1469 391 1925 391 
Q 2381 391 2643 752 
Q 2906 1113 2906 1747 
Q 2906 2381 2643 2742 
Q 2381 3103 1925 3103 
Q 1469 3103 1208 2742 
Q 947 2381 947 1747 
z
" transform="scale(0.015625)"/>
       <path id="DejaVuSans-74" d="M 1172 4494 
L 1172 3500 
L 2356 3500 
L 2356 3053 
L 1172 3053 
L 1172 1153 
Q 1172 725 1289 603 
Q 1406 481 1766 481 
L 2356 481 
L 2356 0 
L 1766 0 
Q 1100 0 847 248 
Q 594 497 594 1153 
L 594 3053 
L 172 3053 
L 172 3500 
L 594 3500 
L 594 4494 
L 1172 4494 
z
" transform="scale(0.015625)"/>
       <path id="DejaVuSans-6c" d="M 603 4863 
L 1178 4863 
L 1178 0 
L 603 0 
L 603 4863 
z
" transform="scale(0.015625)"/>
      </defs>
      <use xlink:href="#DejaVuSans-44"/>
      <use xlink:href="#DejaVuSans-65" transform="translate(77.001953 0)"/>
      <use xlink:href="#DejaVuSans-6d" transform="translate(138.525391 0)"/>
      <use xlink:href="#DejaVuSans-61" transform="translate(235.9375 0)"/>
      <use xlink:href="#DejaVuSans-6e" transform="translate(297.216797 0)"/>
      <use xlink:href="#DejaVuSans-64" transform="translate(360.595703 0)"/>
      <use xlink:href="#DejaVuSans-20" transform="translate(424.072266 0)"/>
      <use xlink:href="#DejaVuSans-74" transform="translate(455.859375 0)"/>
      <use xlink:href="#DejaVuSans-6f" transform="translate(495.068359 0)"/>
      <use xlink:href="#DejaVuSans-74" transform="translate(556.25 0)"/>
      <use xlink:href="#DejaVuSans-61" transform="translate(595.458984 0)"/>
      <use xlink:href="#DejaVuSans-6c" transform="translate(656.738281 0)"/>
     </g>
    </g>
    <g id="line2d_31">
     <path d="M 453.307444 38.576562 
L 463.307444 38.576562 
L 473.307444 38.576562 
" style="fill: none; stroke: #ff7f0e; stroke-width: 1.5; stroke-linecap: square"/>
    </g>
    <g id="text_17">
     <!-- Supplied total -->
     <g transform="translate(481.307444 42.076562) scale(0.1 -0.1)">
      <defs>
       <path id="DejaVuSans-53" d="M 3425 4513 
L 3425 3897 
Q 3066 4069 2747 4153 
Q 2428 4238 2131 4238 
Q 1616 4238 1336 4038 
Q 1056 3838 1056 3469 
Q 1056 3159 1242 3001 
Q 1428 2844 1947 2747 
L 2328 2669 
Q 3034 2534 3370 2195 
Q 3706 1856 3706 1288 
Q 3706 609 3251 259 
Q 2797 -91 1919 -91 
Q 1588 -91 1214 -16 
Q 841 59 441 206 
L 441 856 
Q 825 641 1194 531 
Q 1563 422 1919 422 
Q 2459 422 2753 634 
Q 3047 847 3047 1241 
Q 3047 1584 2836 1778 
Q 2625 1972 2144 2069 
L 1759 2144 
Q 1053 2284 737 2584 
Q 422 2884 422 3419 
Q 422 4038 858 4394 
Q 1294 4750 2059 4750 
Q 2388 4750 2728 4690 
Q 3069 4631 3425 4513 
z
" transform="scale(0.015625)"/>
       <path id="DejaVuSans-75" d="M 544 1381 
L 544 3500 
L 1119 3500 
L 1119 1403 
Q 1119 906 1312 657 
Q 1506 409 1894 409 
Q 2359 409 2629 706 
Q 2900 1003 2900 1516 
L 2900 3500 
L 3475 3500 
L 3475 0 
L 2900 0 
L 2900 538 
Q 2691 219 2414 64 
Q 2138 -91 1772 -91 
Q 1169 -91 856 284 
Q 544 659 544 1381 
z
M 1991 3584 
L 1991 3584 
z
" transform="scale(0.015625)"/>
       <path id="DejaVuSans-70" d="M 1159 525 
L 1159 -1331 
L 581 -1331 
L 581 3500 
L 1159 3500 
L 1159 2969 
Q 1341 3281 1617 3432 
Q 1894 3584 2278 3584 
Q 2916 3584 3314 3078 
Q 3713 2572 3713 1747 
Q 3713 922 3314 415 
Q 2916 -91 2278 -91 
Q 1894 -91 1617 61 
Q 1341 213 1159 525 
z
M 3116 1747 
Q 3116 2381 2855 2742 
Q 2594 3103 2138 3103 
Q 1681 3103 1420 2742 
Q 1159 2381 1159 1747 
Q 1159 1113 1420 752 
Q 1681 391 2138 391 
Q 2594 391 2855 752 
Q 3116 1113 3116 1747 
z
" transform="scale(0.015625)"/>
      </defs>
      <use xlink:href="#DejaVuSans-53"/>
      <use xlink:href="#DejaVuSans-75" transform="translate(63.476562 0)"/>
      <use xlink:href="#DejaVuSans-70" transform="translate(126.855469 0)"/>
      <use xlink:href="#DejaVuSans-70" transform="translate(190.332031 0)"/>
      <use xlink:href="#DejaVuSans-6c" transform="translate(253.808594 0)"/>
      <use xlink:href="#DejaVuSans-69" transform="translate(281.591797 0)"/>
      <use xlink:href="#DejaVuSans-65" transform="translate(309.375 0)"/>
      <use xlink:href="#DejaVuSans-64" transform="translate(370.898438 0)"/>
      <use xlink:href="#DejaVuSans-20" transform="translate(434.375 0)"/>
      <use xlink:href="#DejaVuSans-74" transform="translate(466.162109 0)"/>
      <use xlink:href="#DejaVuSans-6f" transform="translate(505.371094 0)"/>
      <use xlink:href="#DejaVuSans-74" transform="translate(566.552734 0)"/>
      <use xlink:href="#DejaVuSans-61" transform="translate(605.761719 0)"/>
      <use xlink:href="#DejaVuSans-6c" transform="translate(667.041016 0)"/>
     </g>
    </g>
    <g id="line2d_32">
     <path d="M 453.307444 53.254687 
L 463.307444 53.254687 
L 473.307444 53.254687 
" style="fill: none; stroke: #2ca02c; stroke-width: 1.5; stroke-linecap: square"/>
    </g>
    <g id="text_18">
     <!-- Boiler power -->
     <g transform="translate(481.307444 56.754687) scale(0.1 -0.1)">
      <defs>
       <path id="DejaVuSans-42" d="M 1259 2228 
L 1259 519 
L 2272 519 
Q 2781 519 3026 730 
Q 3272 941 3272 1375 
Q 3272 1813 3026 2020 
Q 2781 2228 2272 2228 
L 1259 2228 
z
M 1259 4147 
L 1259 2741 
L 2194 2741 
Q 2656 2741 2882 2914 
Q 3109 3088 3109 3444 
Q 3109 3797 2882 3972 
Q 2656 4147 2194 4147 
L 1259 4147 
z
M 628 4666 
L 2241 4666 
Q 2963 4666 3353 4366 
Q 3744 4066 3744 3513 
Q 3744 3084 3544 2831 
Q 3344 2578 2956 2516 
Q 3422 2416 3680 2098 
Q 3938 1781 3938 1306 
Q 3938 681 3513 340 
Q 3088 0 2303 0 
L 628 0 
L 628 4666 
z
" transform="scale(0.015625)"/>
      </defs>
      <use xlink:href="#DejaVuSans-42"/>
      <use xlink:href="#DejaVuSans-6f" transform="translate(68.603516 0)"/>
      <use xlink:href="#DejaVuSans-69" transform="translate(129.785156 0)"/>
      <use xlink:href="#DejaVuSans-6c" transform="translate(157.568359 0)"/>
      <use xlink:href="#DejaVuSans-65" transform="translate(185.351562 0)"/>
      <use xlink:href="#DejaVuSans-72" transform="translate(246.875 0)"/>
      <use xlink:href="#DejaVuSans-20" transform="translate(287.988281 0)"/>
      <use xlink:href="#DejaVuSans-70" transform="translate(319.775391 0)"/>
      <use xlink:href="#DejaVuSans-6f" transform="translate(383.251953 0)"/>
      <use xlink:href="#DejaVuSans-77" transform="translate(444.433594 0)"/>
      <use xlink:href="#DejaVuSans-65" transform="translate(526.220703 0)"/>
      <use xlink:href="#DejaVuSans-72" transform="translate(587.744141 0)"/>
     </g>
    </g>
   </g>
  </g>
 </g>
 <defs>
  <clipPath id="pb1eb0d4190">
   <rect x="57.26" y="10.8" width="502.531819" height="235.24"/>
  </clipPath>
 </defs>
</svg>
