<?xml version="1.0" encoding="utf-8" standalone="no"?>
<!DOCTYPE svg PUBLIC "-//W3C//DTD SVG 1.1//EN"
  "http://www.w3.org/Graphics/SVG/1.1/DTD/svg11.dtd">
<svg xmlns:xlink="http://www.w3.org/1999/xlink" width="576pt" height="288pt" viewBox="0 0 576 288" xmlns="http://www.w3.org/2000/svg" version="1.1">
 <metadata>
  <rdf:RDF xmlns:dc="http://purl.org/dc/elements/1.1/" xmlns:cc="http://creativecommons.org/ns#" xmlns:rdf="http://www.w3.org/1999/02/22-rdf-syntax-ns#">
   <cc:Work>
    <dc:type rdf:resource="http://purl.org/dc/dcmitype/StillImage"/>
    <dc:date>2025-12-26T13:17:36.995580</dc:date>
    <dc:format>image/svg+xml</dc:format>
    <dc:creator>
     <cc:Agent>
      <dc:title>Matplotlib v3.10.7, https://matplotlib.org/</dc:title>
     </cc:Agent>
    </dc:creator>
   </cc:Work>
  </rdf:RDF>
 </metadata>
 <defs>
  <style type="text/css">*{stroke-linejoin: round; stroke-linecap: butt}</style>
 </defs>
 <g id="figure_1">
  <g id="patch_1">
   <path d="M 0 288 
L 576 288 
L 576 0 
L 0 0 
L 0 288 
z
" style="fill: none"/>
  </g>
  <g id="axes_1">
   <g id="patch_2">
    <path d="M 44.93 246.04 
L 562.281818 246.04 
L 562.281818 27.24 
L 44.93 27.24 
L 44.93 246.04 
z
" style="fill: none"/>
   </g>
   <g id="matplotlib.axis_1">
    <g id="xtick_1">
     <g id="line2d_1">
      <path d="M 68.445992 246.04 
L 68.445992 27.24 
" clip-path="url(#pff6e2ff010)" style="fill: none; stroke: #b0b0b0; stroke-width: 0.8; stroke-linecap: square"/>
     </g>
     <g id="line2d_2">
      <defs>
       <path id="m9631097e3c" d="M 0 0 
L 0 3.5 
" style="stroke: #000000; stroke-width: 0.8"/>
      </defs>
      <g>
       <use xlink:href="#m9631097e3c" x="68.445992" y="246.04" style="stroke: #000000; stroke-width: 0.8"/>
      </g>
     </g>
     <g id="text_1">
      <!-- 0 -->
      <g transform="translate(65.264742 260.638438) scale(0.1 -0.1)">
       <defs>
        <path id="DejaVuSans-30" d="M 2034 4250 
Q 1547 4250 1301 3770 
Q 1056 3291 1056 2328 
Q 1056 1369 1301 889 
Q 1547 409 2034 409 
Q 2525 409 2770 889 
Q 3016 1369 3016 2328 
Q 3016 3291 2770 3770 
Q 2525 4250 2034 4250 
z
M 2034 4750 
Q 2819 4750 3233 4129 
Q 3647 3509 3647 2328 
Q 3647 1150 3233 529 
Q 2819 -91 2034 -91 
Q 1250 -91 836 529 
Q 422 1150 422 2328 
Q 422 3509 836 4129 
Q 1250 4750 2034 4750 
z
" transform="scale(0.015625)"/>
       </defs>
       <use xlink:href="#DejaVuSans-30"/>
      </g>
     </g>
    </g>
    <g id="xtick_2">
     <g id="line2d_3">
      <path d="M 166.429291 246.04 
L 166.429291 27.24 
" clip-path="url(#pff6e2ff010)" style="fill: none; stroke: #b0b0b0; stroke-width: 0.8; stroke-linecap: square"/>
     </g>
     <g id="line2d_4">
      <g>
       <use xlink:href="#m9631097e3c" x="166.429291" y="246.04" style="stroke: #000000; stroke-width: 0.8"/>
      </g>
     </g>
     <g id="text_2">
      <!-- 5 -->
      <g transform="translate(163.248041 260.638438) scale(0.1 -0.1)">
       <defs>
        <path id="DejaVuSans-35" d="M 691 4666 
L 3169 4666 
L 3169 4134 
L 1269 4134 
L 1269 2991 
Q 1406 3038 1543 3061 
Q 1681 3084 1819 3084 
Q 2600 3084 3056 2656 
Q 3513 2228 3513 1497 
Q 3513 744 3044 326 
Q 2575 -91 1722 -91 
Q 1428 -91 1123 -41 
Q 819 9 494 109 
L 494 744 
Q 775 591 1075 516 
Q 1375 441 1709 441 
Q 2250 441 2565 725 
Q 2881 1009 2881 1497 
Q 2881 1984 2565 2268 
Q 2250 2553 1709 2553 
Q 1456 2553 1204 2497 
Q 953 2441 691 2322 
L 691 4666 
z
" transform="scale(0.015625)"/>
       </defs>
       <use xlink:href="#DejaVuSans-35"/>
      </g>
     </g>
    </g>
    <g id="xtick_3">
     <g id="line2d_5">
      <path d="M 264.41259 246.04 
L 264.41259 27.24 
" clip-path="url(#pff6e2ff010)" style="fill: none; stroke: #b0b0b0; stroke-width: 0.8; stroke-linecap: square"/>
     </g>
     <g id="line2d_6">
      <g>
       <use xlink:href="#m9631097e3c" x="264.41259" y="246.04" style="stroke: #000000; stroke-width: 0.8"/>
      </g>
     </g>
     <g id="text_3">
      <!-- 10 -->
      <g transform="translate(258.05009 260.638438) scale(0.1 -0.1)">
       <defs>
        <path id="DejaVuSans-31" d="M 794 531 
L 1825 531 
L 1825 4091 
L 703 3866 
L 703 4441 
L 1819 4666 
L 2450 4666 
L 2450 531 
L 3481 531 
L 3481 0 
L 794 0 
L 794 531 
z
" transform="scale(0.015625)"/>
       </defs>
       <use xlink:href="#DejaVuSans-31"/>
       <use xlink:href="#DejaVuSans-30" transform="translate(63.623047 0)"/>
      </g>
     </g>
    </g>
    <g id="xtick_4">
     <g id="line2d_7">
      <path d="M 362.395888 246.04 
L 362.395888 27.24 
" clip-path="url(#pff6e2ff010)" style="fill: none; stroke: #b0b0b0; stroke-width: 0.8; stroke-linecap: square"/>
     </g>
     <g id="line2d_8">
      <g>
       <use xlink:href="#m9631097e3c" x="362.395888" y="246.04" style="stroke: #000000; stroke-width: 0.8"/>
      </g>
     </g>
     <g id="text_4">
      <!-- 15 -->
      <g transform="translate(356.033388 260.638438) scale(0.1 -0.1)">
       <use xlink:href="#DejaVuSans-31"/>
       <use xlink:href="#DejaVuSans-35" transform="translate(63.623047 0)"/>
      </g>
     </g>
    </g>
    <g id="xtick_5">
     <g id="line2d_9">
      <path d="M 460.379187 246.04 
L 460.379187 27.24 
" clip-path="url(#pff6e2ff010)" style="fill: none; stroke: #b0b0b0; stroke-width: 0.8; stroke-linecap: square"/>
     </g>
     <g id="line2d_10">
      <g>
       <use xlink:href="#m9631097e3c" x="460.379187" y="246.04" style="stroke: #000000; stroke-width: 0.8"/>
      </g>
     </g>
     <g id="text_5">
      <!-- 20 -->
      <g transform="translate(454.016687 260.638438) scale(0.1 -0.1)">
       <defs>
        <path id="DejaVuSans-32" d="M 1228 531 
L 3431 531 
L 3431 0 
L 469 0 
L 469 531 
Q 828 903 1448 1529 
Q 2069 2156 2228 2338 
Q 2531 2678 2651 2914 
Q 2772 3150 2772 3378 
Q 2772 3750 2511 3984 
Q 2250 4219 1831 4219 
Q 1534 4219 1204 4116 
Q 875 4013 500 3803 
L 500 4441 
Q 881 4594 1212 4672 
Q 1544 4750 1819 4750 
Q 2544 4750 2975 4387 
Q 3406 4025 3406 3419 
Q 3406 3131 3298 2873 
Q 3191 2616 2906 2266 
Q 2828 2175 2409 1742 
Q 1991 1309 1228 531 
z
" transform="scale(0.015625)"/>
       </defs>
       <use xlink:href="#DejaVuSans-32"/>
       <use xlink:href="#DejaVuSans-30" transform="translate(63.623047 0)"/>
      </g>
     </g>
    </g>
    <g id="xtick_6">
     <g id="line2d_11">
      <path d="M 558.362486 246.04 
L 558.362486 27.24 
" clip-path="url(#pff6e2ff010)" style="fill: none; stroke: #b0b0b0; stroke-width: 0.8; stroke-linecap: square"/>
     </g>
     <g id="line2d_12">
      <g>
       <use xlink:href="#m9631097e3c" x="558.362486" y="246.04" style="stroke: #000000; stroke-width: 0.8"/>
      </g>
     </g>
     <g id="text_6">
      <!-- 25 -->
      <g transform="translate(551.999986 260.638438) scale(0.1 -0.1)">
       <use xlink:href="#DejaVuSans-32"/>
       <use xlink:href="#DejaVuSans-35" transform="translate(63.623047 0)"/>
      </g>
     </g>
    </g>
    <g id="text_7">
     <!-- Temps (heures) -->
     <g transform="translate(265.147315 274.316562) scale(0.1 -0.1)">
      <defs>
       <path id="DejaVuSans-54" d="M -19 4666 
L 3928 4666 
L 3928 4134 
L 2272 4134 
L 2272 0 
L 1638 0 
L 1638 4134 
L -19 4134 
L -19 4666 
z
" transform="scale(0.015625)"/>
       <path id="DejaVuSans-65" d="M 3597 1894 
L 3597 1613 
L 953 1613 
Q 991 1019 1311 708 
Q 1631 397 2203 397 
Q 2534 397 2845 478 
Q 3156 559 3463 722 
L 3463 178 
Q 3153 47 2828 -22 
Q 2503 -91 2169 -91 
Q 1331 -91 842 396 
Q 353 884 353 1716 
Q 353 2575 817 3079 
Q 1281 3584 2069 3584 
Q 2775 3584 3186 3129 
Q 3597 2675 3597 1894 
z
M 3022 2063 
Q 3016 2534 2758 2815 
Q 2500 3097 2075 3097 
Q 1594 3097 1305 2825 
Q 1016 2553 972 2059 
L 3022 2063 
z
" transform="scale(0.015625)"/>
       <path id="DejaVuSans-6d" d="M 3328 2828 
Q 3544 3216 3844 3400 
Q 4144 3584 4550 3584 
Q 5097 3584 5394 3201 
Q 5691 2819 5691 2113 
L 5691 0 
L 5113 0 
L 5113 2094 
Q 5113 2597 4934 2840 
Q 4756 3084 4391 3084 
Q 3944 3084 3684 2787 
Q 3425 2491 3425 1978 
L 3425 0 
L 2847 0 
L 2847 2094 
Q 2847 2600 2669 2842 
Q 2491 3084 2119 3084 
Q 1678 3084 1418 2786 
Q 1159 2488 1159 1978 
L 1159 0 
L 581 0 
L 581 3500 
L 1159 3500 
L 1159 2956 
Q 1356 3278 1631 3431 
Q 1906 3584 2284 3584 
Q 2666 3584 2933 3390 
Q 3200 3197 3328 2828 
z
" transform="scale(0.015625)"/>
       <path id="DejaVuSans-70" d="M 1159 525 
L 1159 -1331 
L 581 -1331 
L 581 3500 
L 1159 3500 
L 1159 2969 
Q 1341 3281 1617 3432 
Q 1894 3584 2278 3584 
Q 2916 3584 3314 3078 
Q 3713 2572 3713 1747 
Q 3713 922 3314 415 
Q 2916 -91 2278 -91 
Q 1894 -91 1617 61 
Q 1341 213 1159 525 
z
M 3116 1747 
Q 3116 2381 2855 2742 
Q 2594 3103 2138 3103 
Q 1681 3103 1420 2742 
Q 1159 2381 1159 1747 
Q 1159 1113 1420 752 
Q 1681 391 2138 391 
Q 2594 391 2855 752 
Q 3116 1113 3116 1747 
z
" transform="scale(0.015625)"/>
       <path id="DejaVuSans-73" d="M 2834 3397 
L 2834 2853 
Q 2591 2978 2328 3040 
Q 2066 3103 1784 3103 
Q 1356 3103 1142 2972 
Q 928 2841 928 2578 
Q 928 2378 1081 2264 
Q 1234 2150 1697 2047 
L 1894 2003 
Q 2506 1872 2764 1633 
Q 3022 1394 3022 966 
Q 3022 478 2636 193 
Q 2250 -91 1575 -91 
Q 1294 -91 989 -36 
Q 684 19 347 128 
L 347 722 
Q 666 556 975 473 
Q 1284 391 1588 391 
Q 1994 391 2212 530 
Q 2431 669 2431 922 
Q 2431 1156 2273 1281 
Q 2116 1406 1581 1522 
L 1381 1569 
Q 847 1681 609 1914 
Q 372 2147 372 2553 
Q 372 3047 722 3315 
Q 1072 3584 1716 3584 
Q 2034 3584 2315 3537 
Q 2597 3491 2834 3397 
z
" transform="scale(0.015625)"/>
       <path id="DejaVuSans-20" transform="scale(0.015625)"/>
       <path id="DejaVuSans-28" d="M 1984 4856 
Q 1566 4138 1362 3434 
Q 1159 2731 1159 2009 
Q 1159 1288 1364 580 
Q 1569 -128 1984 -844 
L 1484 -844 
Q 1016 -109 783 600 
Q 550 1309 550 2009 
Q 550 2706 781 3412 
Q 1013 4119 1484 4856 
L 1984 4856 
z
" transform="scale(0.015625)"/>
       <path id="DejaVuSans-68" d="M 3513 2113 
L 3513 0 
L 2938 0 
L 2938 2094 
Q 2938 2591 2744 2837 
Q 2550 3084 2163 3084 
Q 1697 3084 1428 2787 
Q 1159 2491 1159 1978 
L 1159 0 
L 581 0 
L 581 4863 
L 1159 4863 
L 1159 2956 
Q 1366 3272 1645 3428 
Q 1925 3584 2291 3584 
Q 2894 3584 3203 3211 
Q 3513 2838 3513 2113 
z
" transform="scale(0.015625)"/>
       <path id="DejaVuSans-75" d="M 544 1381 
L 544 3500 
L 1119 3500 
L 1119 1403 
Q 1119 906 1312 657 
Q 1506 409 1894 409 
Q 2359 409 2629 706 
Q 2900 1003 2900 1516 
L 2900 3500 
L 3475 3500 
L 3475 0 
L 2900 0 
L 2900 538 
Q 2691 219 2414 64 
Q 2138 -91 1772 -91 
Q 1169 -91 856 284 
Q 544 659 544 1381 
z
M 1991 3584 
L 1991 3584 
z
" transform="scale(0.015625)"/>
       <path id="DejaVuSans-72" d="M 2631 2963 
Q 2534 3019 2420 3045 
Q 2306 3072 2169 3072 
Q 1681 3072 1420 2755 
Q 1159 2438 1159 1844 
L 1159 0 
L 581 0 
L 581 3500 
L 1159 3500 
L 1159 2956 
Q 1341 3275 1631 3429 
Q 1922 3584 2338 3584 
Q 2397 3584 2469 3576 
Q 2541 3569 2628 3553 
L 2631 2963 
z
" transform="scale(0.015625)"/>
       <path id="DejaVuSans-29" d="M 513 4856 
L 1013 4856 
Q 1481 4119 1714 3412 
Q 1947 2706 1947 2009 
Q 1947 1309 1714 600 
Q 1481 -109 1013 -844 
L 513 -844 
Q 928 -128 1133 580 
Q 1338 1288 1338 2009 
Q 1338 2731 1133 3434 
Q 928 4138 513 4856 
z
" transform="scale(0.015625)"/>
      </defs>
      <use xlink:href="#DejaVuSans-54"/>
      <use xlink:href="#DejaVuSans-65" transform="translate(44.083984 0)"/>
      <use xlink:href="#DejaVuSans-6d" transform="translate(105.607422 0)"/>
      <use xlink:href="#DejaVuSans-70" transform="translate(203.019531 0)"/>
      <use xlink:href="#DejaVuSans-73" transform="translate(266.496094 0)"/>
      <use xlink:href="#DejaVuSans-20" transform="translate(318.595703 0)"/>
      <use xlink:href="#DejaVuSans-28" transform="translate(350.382812 0)"/>
      <use xlink:href="#DejaVuSans-68" transform="translate(389.396484 0)"/>
      <use xlink:href="#DejaVuSans-65" transform="translate(452.775391 0)"/>
      <use xlink:href="#DejaVuSans-75" transform="translate(514.298828 0)"/>
      <use xlink:href="#DejaVuSans-72" transform="translate(577.677734 0)"/>
      <use xlink:href="#DejaVuSans-65" transform="translate(616.541016 0)"/>
      <use xlink:href="#DejaVuSans-73" transform="translate(678.064453 0)"/>
      <use xlink:href="#DejaVuSans-29" transform="translate(730.164062 0)"/>
     </g>
    </g>
   </g>
   <g id="matplotlib.axis_2">
    <g id="ytick_1">
     <g id="line2d_13">
      <path d="M 44.93 230.192496 
L 562.281818 230.192496 
" clip-path="url(#pff6e2ff010)" style="fill: none; stroke: #b0b0b0; stroke-width: 0.8; stroke-linecap: square"/>
     </g>
     <g id="line2d_14">
      <defs>
       <path id="m0eaa89d25a" d="M 0 0 
L -3.5 0 
" style="stroke: #000000; stroke-width: 0.8"/>
      </defs>
      <g>
       <use xlink:href="#m0eaa89d25a" x="44.93" y="230.192496" style="stroke: #000000; stroke-width: 0.8"/>
      </g>
     </g>
     <g id="text_8">
      <!-- 40 -->
      <g transform="translate(25.205 233.991715) scale(0.1 -0.1)">
       <defs>
        <path id="DejaVuSans-34" d="M 2419 4116 
L 825 1625 
L 2419 1625 
L 2419 4116 
z
M 2253 4666 
L 3047 4666 
L 3047 1625 
L 3713 1625 
L 3713 1100 
L 3047 1100 
L 3047 0 
L 2419 0 
L 2419 1100 
L 313 1100 
L 313 1709 
L 2253 4666 
z
" transform="scale(0.015625)"/>
       </defs>
       <use xlink:href="#DejaVuSans-34"/>
       <use xlink:href="#DejaVuSans-30" transform="translate(63.623047 0)"/>
      </g>
     </g>
    </g>
    <g id="ytick_2">
     <g id="line2d_15">
      <path d="M 44.93 192.361235 
L 562.281818 192.361235 
" clip-path="url(#pff6e2ff010)" style="fill: none; stroke: #b0b0b0; stroke-width: 0.8; stroke-linecap: square"/>
     </g>
     <g id="line2d_16">
      <g>
       <use xlink:href="#m0eaa89d25a" x="44.93" y="192.361235" style="stroke: #000000; stroke-width: 0.8"/>
      </g>
     </g>
     <g id="text_9">
      <!-- 45 -->
      <g transform="translate(25.205 196.160453) scale(0.1 -0.1)">
       <use xlink:href="#DejaVuSans-34"/>
       <use xlink:href="#DejaVuSans-35" transform="translate(63.623047 0)"/>
      </g>
     </g>
    </g>
    <g id="ytick_3">
     <g id="line2d_17">
      <path d="M 44.93 154.529973 
L 562.281818 154.529973 
" clip-path="url(#pff6e2ff010)" style="fill: none; stroke: #b0b0b0; stroke-width: 0.8; stroke-linecap: square"/>
     </g>
     <g id="line2d_18">
      <g>
       <use xlink:href="#m0eaa89d25a" x="44.93" y="154.529973" style="stroke: #000000; stroke-width: 0.8"/>
      </g>
     </g>
     <g id="text_10">
      <!-- 50 -->
      <g transform="translate(25.205 158.329192) scale(0.1 -0.1)">
       <use xlink:href="#DejaVuSans-35"/>
       <use xlink:href="#DejaVuSans-30" transform="translate(63.623047 0)"/>
      </g>
     </g>
    </g>
    <g id="ytick_4">
     <g id="line2d_19">
      <path d="M 44.93 116.698712 
L 562.281818 116.698712 
" clip-path="url(#pff6e2ff010)" style="fill: none; stroke: #b0b0b0; stroke-width: 0.8; stroke-linecap: square"/>
     </g>
     <g id="line2d_20">
      <g>
       <use xlink:href="#m0eaa89d25a" x="44.93" y="116.698712" style="stroke: #000000; stroke-width: 0.8"/>
      </g>
     </g>
     <g id="text_11">
      <!-- 55 -->
      <g transform="translate(25.205 120.497931) scale(0.1 -0.1)">
       <use xlink:href="#DejaVuSans-35"/>
       <use xlink:href="#DejaVuSans-35" transform="translate(63.623047 0)"/>
      </g>
     </g>
    </g>
    <g id="ytick_5">
     <g id="line2d_21">
      <path d="M 44.93 78.867451 
L 562.281818 78.867451 
" clip-path="url(#pff6e2ff010)" style="fill: none; stroke: #b0b0b0; stroke-width: 0.8; stroke-linecap: square"/>
     </g>
     <g id="line2d_22">
      <g>
       <use xlink:href="#m0eaa89d25a" x="44.93" y="78.867451" style="stroke: #000000; stroke-width: 0.8"/>
      </g>
     </g>
     <g id="text_12">
      <!-- 60 -->
      <g transform="translate(25.205 82.66667) scale(0.1 -0.1)">
       <defs>
        <path id="DejaVuSans-36" d="M 2113 2584 
Q 1688 2584 1439 2293 
Q 1191 2003 1191 1497 
Q 1191 994 1439 701 
Q 1688 409 2113 409 
Q 2538 409 2786 701 
Q 3034 994 3034 1497 
Q 3034 2003 2786 2293 
Q 2538 2584 2113 2584 
z
M 3366 4563 
L 3366 3988 
Q 3128 4100 2886 4159 
Q 2644 4219 2406 4219 
Q 1781 4219 1451 3797 
Q 1122 3375 1075 2522 
Q 1259 2794 1537 2939 
Q 1816 3084 2150 3084 
Q 2853 3084 3261 2657 
Q 3669 2231 3669 1497 
Q 3669 778 3244 343 
Q 2819 -91 2113 -91 
Q 1303 -91 875 529 
Q 447 1150 447 2328 
Q 447 3434 972 4092 
Q 1497 4750 2381 4750 
Q 2619 4750 2861 4703 
Q 3103 4656 3366 4563 
z
" transform="scale(0.015625)"/>
       </defs>
       <use xlink:href="#DejaVuSans-36"/>
       <use xlink:href="#DejaVuSans-30" transform="translate(63.623047 0)"/>
      </g>
     </g>
    </g>
    <g id="ytick_6">
     <g id="line2d_23">
      <path d="M 44.93 41.03619 
L 562.281818 41.03619 
" clip-path="url(#pff6e2ff010)" style="fill: none; stroke: #b0b0b0; stroke-width: 0.8; stroke-linecap: square"/>
     </g>
     <g id="line2d_24">
      <g>
       <use xlink:href="#m0eaa89d25a" x="44.93" y="41.03619" style="stroke: #000000; stroke-width: 0.8"/>
      </g>
     </g>
     <g id="text_13">
      <!-- 65 -->
      <g transform="translate(25.205 44.835408) scale(0.1 -0.1)">
       <use xlink:href="#DejaVuSans-36"/>
       <use xlink:href="#DejaVuSans-35" transform="translate(63.623047 0)"/>
      </g>
     </g>
    </g>
    <g id="text_14">
     <!-- Température (°C) -->
     <g transform="translate(19.125313 179.791562) rotate(-90) scale(0.1 -0.1)">
      <defs>
       <path id="DejaVuSans-e9" d="M 3597 1894 
L 3597 1613 
L 953 1613 
Q 991 1019 1311 708 
Q 1631 397 2203 397 
Q 2534 397 2845 478 
Q 3156 559 3463 722 
L 3463 178 
Q 3153 47 2828 -22 
Q 2503 -91 2169 -91 
Q 1331 -91 842 396 
Q 353 884 353 1716 
Q 353 2575 817 3079 
Q 1281 3584 2069 3584 
Q 2775 3584 3186 3129 
Q 3597 2675 3597 1894 
z
M 3022 2063 
Q 3016 2534 2758 2815 
Q 2500 3097 2075 3097 
Q 1594 3097 1305 2825 
Q 1016 2553 972 2059 
L 3022 2063 
z
M 2466 5119 
L 3088 5119 
L 2070 3944 
L 1591 3944 
L 2466 5119 
z
" transform="scale(0.015625)"/>
       <path id="DejaVuSans-61" d="M 2194 1759 
Q 1497 1759 1228 1600 
Q 959 1441 959 1056 
Q 959 750 1161 570 
Q 1363 391 1709 391 
Q 2188 391 2477 730 
Q 2766 1069 2766 1631 
L 2766 1759 
L 2194 1759 
z
M 3341 1997 
L 3341 0 
L 2766 0 
L 2766 531 
Q 2569 213 2275 61 
Q 1981 -91 1556 -91 
Q 1019 -91 701 211 
Q 384 513 384 1019 
Q 384 1609 779 1909 
Q 1175 2209 1959 2209 
L 2766 2209 
L 2766 2266 
Q 2766 2663 2505 2880 
Q 2244 3097 1772 3097 
Q 1472 3097 1187 3025 
Q 903 2953 641 2809 
L 641 3341 
Q 956 3463 1253 3523 
Q 1550 3584 1831 3584 
Q 2591 3584 2966 3190 
Q 3341 2797 3341 1997 
z
" transform="scale(0.015625)"/>
       <path id="DejaVuSans-74" d="M 1172 4494 
L 1172 3500 
L 2356 3500 
L 2356 3053 
L 1172 3053 
L 1172 1153 
Q 1172 725 1289 603 
Q 1406 481 1766 481 
L 2356 481 
L 2356 0 
L 1766 0 
Q 1100 0 847 248 
Q 594 497 594 1153 
L 594 3053 
L 172 3053 
L 172 3500 
L 594 3500 
L 594 4494 
L 1172 4494 
z
" transform="scale(0.015625)"/>
       <path id="DejaVuSans-b0" d="M 1600 4347 
Q 1350 4347 1178 4173 
Q 1006 4000 1006 3750 
Q 1006 3503 1178 3333 
Q 1350 3163 1600 3163 
Q 1850 3163 2022 3333 
Q 2194 3503 2194 3750 
Q 2194 3997 2020 4172 
Q 1847 4347 1600 4347 
z
M 1600 4750 
Q 1800 4750 1984 4673 
Q 2169 4597 2303 4453 
Q 2447 4313 2519 4134 
Q 2591 3956 2591 3750 
Q 2591 3338 2302 3052 
Q 2013 2766 1594 2766 
Q 1172 2766 890 3047 
Q 609 3328 609 3750 
Q 609 4169 896 4459 
Q 1184 4750 1600 4750 
z
" transform="scale(0.015625)"/>
       <path id="DejaVuSans-43" d="M 4122 4306 
L 4122 3641 
Q 3803 3938 3442 4084 
Q 3081 4231 2675 4231 
Q 1875 4231 1450 3742 
Q 1025 3253 1025 2328 
Q 1025 1406 1450 917 
Q 1875 428 2675 428 
Q 3081 428 3442 575 
Q 3803 722 4122 1019 
L 4122 359 
Q 3791 134 3420 21 
Q 3050 -91 2638 -91 
Q 1578 -91 968 557 
Q 359 1206 359 2328 
Q 359 3453 968 4101 
Q 1578 4750 2638 4750 
Q 3056 4750 3426 4639 
Q 3797 4528 4122 4306 
z
" transform="scale(0.015625)"/>
      </defs>
      <use xlink:href="#DejaVuSans-54"/>
      <use xlink:href="#DejaVuSans-65" transform="translate(44.083984 0)"/>
      <use xlink:href="#DejaVuSans-6d" transform="translate(105.607422 0)"/>
      <use xlink:href="#DejaVuSans-70" transform="translate(203.019531 0)"/>
      <use xlink:href="#DejaVuSans-e9" transform="translate(266.496094 0)"/>
      <use xlink:href="#DejaVuSans-72" transform="translate(328.019531 0)"/>
      <use xlink:href="#DejaVuSans-61" transform="translate(369.132812 0)"/>
      <use xlink:href="#DejaVuSans-74" transform="translate(430.412109 0)"/>
      <use xlink:href="#DejaVuSans-75" transform="translate(469.621094 0)"/>
      <use xlink:href="#DejaVuSans-72" transform="translate(533 0)"/>
      <use xlink:href="#DejaVuSans-65" transform="translate(571.863281 0)"/>
      <use xlink:href="#DejaVuSans-20" transform="translate(633.386719 0)"/>
      <use xlink:href="#DejaVuSans-28" transform="translate(665.173828 0)"/>
      <use xlink:href="#DejaVuSans-b0" transform="translate(704.1875 0)"/>
      <use xlink:href="#DejaVuSans-43" transform="translate(754.1875 0)"/>
      <use xlink:href="#DejaVuSans-29" transform="translate(824.011719 0)"/>
     </g>
    </g>
   </g>
   <g id="line2d_25">
    <path d="M 68.445992 230.192496 
L 80.312858 234.454322 
L 83.089051 235.211103 
L 85.593069 235.663725 
L 88.369263 235.933593 
L 92.288594 236.069622 
L 97.4055 236.040783 
L 98.494203 235.834273 
L 99.256296 235.459462 
L 99.855083 234.922243 
L 100.453869 234.065418 
L 101.052656 232.773137 
L 101.651443 230.918907 
L 102.304665 228.105354 
L 103.012322 223.956268 
L 103.774415 218.042517 
L 104.645377 209.330984 
L 105.62521 197.092976 
L 106.822784 179.150221 
L 108.78245 145.759356 
L 111.014292 108.699584 
L 112.375171 89.641032 
L 113.572744 75.89876 
L 114.661448 65.920831 
L 115.641281 58.842656 
L 116.621114 53.348041 
L 117.546512 49.392084 
L 118.417474 46.574138 
L 119.288437 44.470981 
L 120.159399 42.942551 
L 120.975927 41.926273 
L 121.84689 41.19444 
L 122.717852 40.749817 
L 123.64325 40.523508 
L 124.677518 40.502642 
L 125.875092 40.71012 
L 127.290406 41.190869 
L 129.032332 42.030809 
L 131.209738 43.344585 
L 133.822626 45.191099 
L 136.762125 47.549155 
L 140.518152 50.876782 
L 145.743928 55.478434 
L 148.139075 57.283092 
L 150.153176 58.523959 
L 152.003972 59.407174 
L 153.854767 60.048443 
L 155.814433 60.491568 
L 157.99184 60.747314 
L 160.495858 60.809094 
L 168.00791 60.814726 
L 169.749836 61.180001 
L 171.491761 61.780197 
L 173.505862 62.724258 
L 177.316324 64.832444 
L 179.983647 66.161791 
L 182.106618 66.969691 
L 184.12072 67.501054 
L 186.298126 67.844696 
L 188.911014 68.021327 
L 192.34043 68.014342 
L 196.586373 67.776667 
L 208.344368 66.954533 
L 212.04596 67.02957 
L 218.79592 67.244238 
L 220.701151 67.008377 
L 222.443077 66.57099 
L 224.130567 65.922057 
L 225.818057 65.035042 
L 227.505547 63.897717 
L 229.301907 62.413612 
L 231.316009 60.451686 
L 234.037767 57.45962 
L 238.120404 52.981152 
L 240.025635 51.242008 
L 241.713125 49.996481 
L 243.34618 49.060342 
L 245.088106 48.318986 
L 247.047772 47.733488 
L 249.334049 47.290185 
L 251.783631 47.04041 
L 254.233213 47.015445 
L 257.934805 47.250449 
L 260.765433 47.318005 
L 263.704932 47.13641 
L 266.862172 46.990143 
L 268.821838 47.128775 
L 270.890374 47.505642 
L 273.557697 48.237423 
L 276.551632 49.27739 
L 278.674603 50.235534 
L 280.579834 51.33903 
L 282.593935 52.774729 
L 285.097953 54.858101 
L 295.658375 63.974747 
L 297.345865 65.01776 
L 298.815614 65.667997 
L 300.122058 66.008011 
L 301.374067 66.107195 
L 302.626076 65.976455 
L 303.878085 65.61157 
L 305.130094 65.011613 
L 306.436538 64.139495 
L 307.851852 62.926325 
L 309.484907 61.217551 
L 311.444573 58.819496 
L 318.140098 50.299209 
L 319.609848 48.971141 
L 320.970727 48.027486 
L 322.331606 47.355302 
L 323.692485 46.935235 
L 325.1078 46.737062 
L 326.577549 46.754688 
L 328.210604 46.999641 
L 330.0614 47.511346 
L 332.293242 48.373263 
L 337.900064 50.664917 
L 339.641989 51.063058 
L 341.329479 51.22665 
L 343.180275 51.175845 
L 345.357681 50.883464 
L 348.895967 50.144615 
L 352.488688 49.466639 
L 354.557225 49.298029 
L 356.353585 49.374465 
L 357.98664 49.665544 
L 359.56526 50.173606 
L 361.089444 50.901512 
L 362.559194 51.855229 
L 364.028943 53.086785 
L 365.498693 54.612691 
L 367.131748 56.638692 
L 369.145849 59.520791 
L 376.440161 70.34372 
L 378.399827 72.64649 
L 380.250623 74.481437 
L 381.992548 75.899226 
L 383.625603 76.945882 
L 385.204223 77.695727 
L 386.837278 78.220958 
L 388.688074 78.573951 
L 391.790878 78.891349 
L 395.111423 79.314145 
L 397.833182 79.897623 
L 400.881551 80.790301 
L 408.937955 83.281244 
L 411.224232 83.678873 
L 413.238334 83.808663 
L 415.198 83.713702 
L 417.157665 83.399473 
L 419.117331 82.866112 
L 421.022562 82.11755 
L 422.818923 81.170898 
L 424.615283 79.970223 
L 426.629384 78.346772 
L 429.514448 75.69767 
L 437.570853 67.892881 
L 440.782528 64.401707 
L 445.137341 59.295735 
L 450.689728 52.46053 
L 455.969939 45.969338 
L 458.419521 43.333873 
L 460.488058 41.418491 
L 462.338853 39.996701 
L 464.080779 38.936308 
L 465.768269 38.166617 
L 467.510194 37.61968 
L 469.306555 37.292508 
L 471.15735 37.185535 
L 473.008146 37.30384 
L 474.858941 37.647189 
L 476.709737 38.216146 
L 478.560533 39.014533 
L 480.411328 40.054977 
L 482.262124 41.350571 
L 484.276225 43.037391 
L 486.997984 45.639906 
L 492.659241 51.102024 
L 499.354766 57.08658 
L 501.586608 58.805641 
L 503.382969 59.912966 
L 505.070459 60.691751 
L 506.757949 61.228984 
L 508.554309 61.57109 
L 510.45954 61.705658 
L 512.255901 61.615697 
L 513.997826 61.310045 
L 515.848622 60.75261 
L 518.407074 59.715385 
L 521.346573 58.575986 
L 523.088499 58.14521 
L 524.667118 57.977542 
L 526.300173 58.029736 
L 528.042099 58.310675 
L 530.0562 58.86913 
L 532.505782 59.793029 
L 538.765826 62.44754 
L 538.765826 62.44754 
" clip-path="url(#pff6e2ff010)" style="fill: none; stroke: #1f77b4; stroke-width: 1.5; stroke-linecap: square"/>
   </g>
   <g id="line2d_26">
    <path d="M 68.445992 230.192496 
L 88.369263 233.48941 
L 92.832946 233.978198 
L 97.351065 234.241581 
L 103.611109 234.360879 
L 108.945755 234.290428 
L 110.46994 234.055776 
L 111.558643 233.671728 
L 112.484041 233.107811 
L 113.300569 232.356407 
L 114.117096 231.299709 
L 114.933624 229.873053 
L 115.804586 227.876512 
L 116.729984 225.153678 
L 117.709817 221.544713 
L 118.79852 216.638987 
L 120.050529 209.881092 
L 121.520279 200.630969 
L 123.479945 186.753298 
L 128.651285 149.451178 
L 130.502081 138.090012 
L 132.135136 129.389595 
L 133.713756 122.165506 
L 135.23794 116.218843 
L 136.762125 111.163872 
L 138.28631 106.868263 
L 139.86493 103.087582 
L 141.443549 99.883808 
L 142.967734 97.289266 
L 144.328613 95.392265 
L 145.526187 94.080466 
L 146.61489 93.211446 
L 147.540288 92.73869 
L 148.411251 92.533095 
L 149.227778 92.561108 
L 150.044306 92.808514 
L 150.915268 93.316209 
L 151.840666 94.128246 
L 152.874934 95.356762 
L 154.018073 97.084084 
L 155.324517 99.486382 
L 156.848701 102.782495 
L 158.699497 107.348847 
L 161.14908 114.041894 
L 166.374855 129.200659 
L 169.967576 139.203873 
L 173.015946 147.043752 
L 176.227621 154.678083 
L 179.765906 162.50534 
L 182.814276 168.743932 
L 184.991682 172.731337 
L 186.733608 175.487682 
L 188.257792 177.496816 
L 189.618671 178.932036 
L 190.87068 179.939607 
L 192.068254 180.624548 
L 193.265827 181.048844 
L 194.463401 181.231897 
L 195.71541 181.191604 
L 197.076289 180.913407 
L 198.546039 180.378923 
L 200.179094 179.541195 
L 201.921019 178.389549 
L 203.662944 176.962398 
L 205.295999 175.337951 
L 206.929054 173.390108 
L 208.562109 171.080014 
L 210.249599 168.292367 
L 212.04596 164.886938 
L 214.114496 160.461998 
L 216.564079 154.658833 
L 219.775753 146.42915 
L 227.886593 125.386829 
L 230.771657 118.710065 
L 233.656721 112.599621 
L 236.922831 106.213046 
L 240.733292 99.254213 
L 243.999402 93.723836 
L 246.557855 89.814818 
L 248.735262 86.877659 
L 250.749363 84.517442 
L 252.709029 82.551089 
L 254.668695 80.889948 
L 256.682796 79.47116 
L 258.642462 78.354045 
L 260.438822 77.572341 
L 262.017442 77.116108 
L 263.432757 76.935861 
L 264.684765 76.993071 
L 265.882339 77.264757 
L 267.079913 77.766618 
L 268.277486 78.507421 
L 269.58393 79.586326 
L 270.999245 81.056844 
L 272.577864 83.026824 
L 274.483095 85.78293 
L 276.987113 89.837822 
L 282.158454 98.32192 
L 283.737073 100.430784 
L 285.043517 101.827404 
L 286.186656 102.736614 
L 287.220924 103.282418 
L 288.200757 103.547078 
L 289.126155 103.571237 
L 290.105988 103.364668 
L 291.140256 102.902339 
L 292.228959 102.168154 
L 293.480968 101.048411 
L 294.950718 99.422401 
L 296.801513 97.020855 
L 303.007122 88.652127 
L 304.259131 87.480521 
L 305.347834 86.74676 
L 306.327667 86.342927 
L 307.253065 86.198819 
L 308.178463 86.289817 
L 309.103861 86.612871 
L 310.083694 87.197071 
L 311.172397 88.116629 
L 312.424406 89.486185 
L 313.894155 91.449037 
L 315.690516 94.239357 
L 318.630015 99.291434 
L 321.406208 103.911458 
L 322.984828 106.128888 
L 324.291272 107.595203 
L 325.379976 108.506787 
L 326.359809 109.061802 
L 327.285206 109.346042 
L 328.210604 109.397003 
L 329.136002 109.22154 
L 330.115835 108.803206 
L 331.204538 108.082767 
L 332.456547 106.96447 
L 333.926297 105.329286 
L 335.777092 102.913899 
L 341.982701 94.517347 
L 343.289145 93.267772 
L 344.432284 92.470541 
L 345.466552 92.019438 
L 346.39195 91.846993 
L 347.317347 91.896804 
L 348.242745 92.165672 
L 349.222578 92.678873 
L 350.311282 93.504619 
L 351.56329 94.750101 
L 353.03304 96.551759 
L 354.8294 99.136679 
L 357.333418 103.17341 
L 361.470491 109.847605 
L 363.212416 112.207896 
L 364.62773 113.775001 
L 365.934174 114.896387 
L 367.131748 115.636268 
L 368.274886 116.088902 
L 369.418025 116.30805 
L 370.615599 116.310758 
L 371.922042 116.083477 
L 373.391792 115.589507 
L 375.079282 114.777678 
L 377.093383 113.55495 
L 379.597401 111.766477 
L 382.809076 109.186971 
L 386.837278 105.65682 
L 391.409832 101.348335 
L 402.732346 90.488185 
L 405.39967 88.375626 
L 407.794817 86.754553 
L 410.135529 85.434564 
L 412.585112 84.310621 
L 415.470175 83.244798 
L 423.363274 80.483669 
L 425.812857 79.283136 
L 428.208004 77.857382 
L 430.820892 76.034096 
L 434.195872 73.381689 
L 438.224075 70.247154 
L 440.020435 69.137171 
L 441.43575 68.508969 
L 442.687758 68.182597 
L 443.885332 68.097223 
L 445.028471 68.232903 
L 446.226044 68.601647 
L 447.478053 69.222479 
L 448.893367 70.184713 
L 450.526422 71.582393 
L 452.540523 73.620188 
L 456.459855 78.001685 
L 458.691697 80.299494 
L 460.270317 81.62166 
L 461.576761 82.438147 
L 462.719899 82.905596 
L 463.808603 83.116083 
L 464.842871 83.096098 
L 465.931574 82.844419 
L 467.074713 82.335636 
L 468.272286 81.554249 
L 469.633166 80.393817 
L 471.211785 78.746781 
L 473.225887 76.302671 
L 479.649236 68.240946 
L 481.06455 66.955408 
L 482.316559 66.108865 
L 483.459698 65.604091 
L 484.493966 65.379191 
L 485.528234 65.375485 
L 486.616937 65.603195 
L 487.760076 66.081612 
L 489.012085 66.858611 
L 490.427399 68.009133 
L 492.114889 69.678276 
L 494.401166 72.276696 
L 499.572507 78.252243 
L 501.423303 79.989082 
L 503.001922 81.180307 
L 504.526107 82.053 
L 505.995856 82.638343 
L 507.520041 82.999438 
L 509.098661 83.143588 
L 510.895021 83.077595 
L 513.126863 82.758307 
L 517.917158 81.999479 
L 519.441342 82.033719 
L 520.802222 82.289813 
L 522.05423 82.750029 
L 523.306239 83.443958 
L 524.612683 84.420925 
L 526.027998 85.757877 
L 527.661053 87.622481 
L 529.566283 90.155642 
L 532.015866 93.813006 
L 538.765826 104.136183 
L 538.765826 104.136183 
" clip-path="url(#pff6e2ff010)" style="fill: none; stroke: #ff7f0e; stroke-width: 1.5; stroke-linecap: square"/>
   </g>
   <g id="line2d_27">
    <path d="M 68.445992 230.192496 
L 73.290722 231.272275 
L 75.141517 231.361672 
L 86.246291 231.367851 
L 100.290564 231.273426 
L 100.617175 231.037844 
L 100.889351 230.582762 
L 101.215962 229.495198 
L 101.542573 227.531498 
L 101.923619 223.780912 
L 102.413535 216.323474 
L 103.066757 202.148013 
L 104.318766 168.368767 
L 105.570775 137.293979 
L 106.441738 120.714952 
L 107.258265 109.181793 
L 108.020357 101.4802 
L 108.728015 96.462745 
L 109.435672 93.010515 
L 110.088894 90.843235 
L 110.742116 89.372518 
L 111.395338 88.397959 
L 112.04856 87.786626 
L 112.756217 87.425409 
L 113.572744 87.272467 
L 114.607013 87.324219 
L 115.804586 87.618209 
L 117.00216 88.142136 
L 118.254169 88.933285 
L 119.669483 90.105038 
L 121.520279 91.956103 
L 124.296472 95.087601 
L 127.617017 99.173949 
L 132.516182 105.615583 
L 136.59882 110.824923 
L 138.885097 113.306329 
L 142.368947 116.693486 
L 144.437484 118.456737 
L 145.907233 119.42324 
L 147.322547 120.104049 
L 149.173343 120.731427 
L 152.112842 121.679377 
L 154.235813 122.51029 
L 155.106776 122.579122 
L 156.086609 122.419778 
L 157.556359 121.926049 
L 163.217616 119.86428 
L 164.469625 119.696892 
L 165.612763 119.760178 
L 166.864772 120.056697 
L 168.552262 120.708672 
L 172.689335 122.395726 
L 174.594566 123.157254 
L 179.657036 125.566629 
L 181.943313 126.210593 
L 186.624737 127.207375 
L 194.735577 128.713466 
L 198.818214 128.55854 
L 204.425037 128.549142 
L 207.255665 128.830025 
L 210.086294 129.093712 
L 211.229432 128.914153 
L 213.679015 128.427559 
L 215.693116 128.469543 
L 216.99956 128.339471 
L 218.469309 127.952146 
L 220.701151 127.110196 
L 222.443077 126.248763 
L 223.912826 125.26069 
L 225.600316 123.774947 
L 227.723288 121.55072 
L 229.791824 119.121559 
L 231.479314 116.739664 
L 235.507516 110.950181 
L 236.759525 109.590658 
L 238.174839 108.374137 
L 240.025635 107.095421 
L 242.856264 105.427026 
L 247.319947 103.039505 
L 249.170743 102.245357 
L 250.422752 101.953295 
L 252.110242 101.821387 
L 254.178778 101.617034 
L 255.430787 101.261033 
L 256.737231 100.642236 
L 258.479156 99.536996 
L 261.636396 97.457611 
L 262.94284 96.873155 
L 264.194849 96.56225 
L 265.610163 96.453906 
L 268.277486 96.539162 
L 271.924642 96.578988 
L 273.884308 96.64065 
L 275.027447 96.913572 
L 276.170585 97.429071 
L 277.640335 98.364077 
L 280.307658 100.388179 
L 283.573768 102.790947 
L 287.438665 105.249465 
L 291.630173 107.721538 
L 292.501135 107.906505 
L 293.317663 107.861944 
L 294.188625 107.576059 
L 295.114023 107.017897 
L 296.202727 106.078743 
L 297.672476 104.480933 
L 299.523272 102.130548 
L 301.156327 99.707349 
L 302.626076 97.118202 
L 304.313566 93.663001 
L 306.872019 87.838767 
L 310.682481 79.199159 
L 311.988925 76.763538 
L 313.023193 75.271105 
L 313.948591 74.287514 
L 314.873988 73.621906 
L 315.853821 73.203437 
L 316.99696 72.970308 
L 318.521145 72.904789 
L 320.208635 73.04375 
L 321.787255 73.384703 
L 323.474745 73.984577 
L 325.597716 74.990452 
L 327.285206 75.994021 
L 328.37391 76.924514 
L 329.734789 78.424043 
L 334.851694 84.371583 
L 336.321444 85.496791 
L 338.226675 86.650424 
L 343.398015 89.294264 
L 347.208477 91.366594 
L 349.059273 92.626898 
L 350.365717 93.770041 
L 351.56329 95.134762 
L 352.92417 97.047564 
L 354.61166 99.822718 
L 356.897937 104.043053 
L 359.238649 108.838943 
L 360.817269 112.595029 
L 362.450324 117.077146 
L 364.791036 124.232886 
L 368.057146 134.121394 
L 370.288988 140.065928 
L 372.357524 144.973182 
L 374.262755 148.919666 
L 376.930078 153.88394 
L 379.27079 157.863644 
L 380.903845 160.217119 
L 382.482465 162.098457 
L 384.659871 164.307203 
L 387.38163 166.800764 
L 389.341296 168.302493 
L 390.375564 168.827213 
L 391.464267 169.135311 
L 393.260628 169.36279 
L 396.417867 169.751641 
L 402.296865 170.700689 
L 404.855318 170.795606 
L 405.835151 170.64863 
L 406.651678 170.300989 
L 407.631511 169.611836 
L 409.046826 168.305084 
L 411.224232 165.965055 
L 413.945991 162.685196 
L 416.939925 158.727839 
L 418.954026 155.717329 
L 420.695951 152.689985 
L 422.927793 148.304971 
L 425.649551 143.01257 
L 426.68382 141.52769 
L 427.935828 140.143503 
L 430.0588 138.191796 
L 432.236206 136.114308 
L 434.195872 133.913206 
L 437.026501 130.345412 
L 443.776462 121.7755 
L 445.137341 119.843832 
L 446.226044 117.853905 
L 447.913534 114.196529 
L 450.635293 108.382719 
L 452.377218 105.194165 
L 454.881236 101.139055 
L 457.766299 96.866699 
L 459.399354 94.853923 
L 460.977974 93.262041 
L 462.93764 91.614941 
L 464.51626 90.517431 
L 465.496093 90.088035 
L 466.584796 89.865146 
L 467.89124 89.835294 
L 469.252119 90.031073 
L 470.776304 90.495573 
L 472.518229 91.281332 
L 474.641201 92.498674 
L 476.709737 93.921308 
L 478.288357 95.262155 
L 479.921412 96.950174 
L 482.316559 99.799589 
L 485.147188 103.083515 
L 487.106854 104.991205 
L 490.917315 108.600453 
L 493.203592 111.215792 
L 496.905184 115.465585 
L 498.211628 116.585313 
L 499.409201 117.331404 
L 500.824516 117.925955 
L 502.893052 118.504523 
L 503.981755 118.927911 
L 504.852718 119.514385 
L 506.104727 120.669979 
L 510.731716 125.191831 
L 512.255901 126.203845 
L 516.99176 129.108202 
L 518.189334 130.263618 
L 519.550213 131.899728 
L 521.401008 134.515925 
L 525.157035 139.931617 
L 526.735655 141.777304 
L 527.933228 142.847901 
L 529.675154 144.057585 
L 534.737624 147.226697 
L 536.098503 147.797734 
L 537.132771 147.993711 
L 538.112604 147.954379 
L 538.765826 147.813536 
L 538.765826 147.813536 
" clip-path="url(#pff6e2ff010)" style="fill: none; stroke: #2ca02c; stroke-width: 1.5; stroke-linecap: square"/>
   </g>
   <g id="patch_3">
    <path d="M 44.93 246.04 
L 44.93 27.24 
" style="fill: none; stroke: #000000; stroke-width: 0.8; stroke-linejoin: miter; stroke-linecap: square"/>
   </g>
   <g id="patch_4">
    <path d="M 562.281818 246.04 
L 562.281818 27.24 
" style="fill: none; stroke: #000000; stroke-width: 0.8; stroke-linejoin: miter; stroke-linecap: square"/>
   </g>
   <g id="patch_5">
    <path d="M 44.93 246.04 
L 562.281818 246.04 
" style="fill: none; stroke: #000000; stroke-width: 0.8; stroke-linejoin: miter; stroke-linecap: square"/>
   </g>
   <g id="patch_6">
    <path d="M 44.93 27.24 
L 562.281818 27.24 
" style="fill: none; stroke: #000000; stroke-width: 0.8; stroke-linejoin: miter; stroke-linecap: square"/>
   </g>
   <g id="text_15">
    <!-- Température des noeuds terminaux -->
    <g transform="translate(196.602472 21.24) scale(0.12 -0.12)">
     <defs>
      <path id="DejaVuSans-64" d="M 2906 2969 
L 2906 4863 
L 3481 4863 
L 3481 0 
L 2906 0 
L 2906 525 
Q 2725 213 2448 61 
Q 2172 -91 1784 -91 
Q 1150 -91 751 415 
Q 353 922 353 1747 
Q 353 2572 751 3078 
Q 1150 3584 1784 3584 
Q 2172 3584 2448 3432 
Q 2725 3281 2906 2969 
z
M 947 1747 
Q 947 1113 1208 752 
Q 1469 391 1925 391 
Q 2381 391 2643 752 
Q 2906 1113 2906 1747 
Q 2906 2381 2643 2742 
Q 2381 3103 1925 3103 
Q 1469 3103 1208 2742 
Q 947 2381 947 1747 
z
" transform="scale(0.015625)"/>
      <path id="DejaVuSans-6e" d="M 3513 2113 
L 3513 0 
L 2938 0 
L 2938 2094 
Q 2938 2591 2744 2837 
Q 2550 3084 2163 3084 
Q 1697 3084 1428 2787 
Q 1159 2491 1159 1978 
L 1159 0 
L 581 0 
L 581 3500 
L 1159 3500 
L 1159 2956 
Q 1366 3272 1645 3428 
Q 1925 3584 2291 3584 
Q 2894 3584 3203 3211 
Q 3513 2838 3513 2113 
z
" transform="scale(0.015625)"/>
      <path id="DejaVuSans-6f" d="M 1959 3097 
Q 1497 3097 1228 2736 
Q 959 2375 959 1747 
Q 959 1119 1226 758 
Q 1494 397 1959 397 
Q 2419 397 2687 759 
Q 2956 1122 2956 1747 
Q 2956 2369 2687 2733 
Q 2419 3097 1959 3097 
z
M 1959 3584 
Q 2709 3584 3137 3096 
Q 3566 2609 3566 1747 
Q 3566 888 3137 398 
Q 2709 -91 1959 -91 
Q 1206 -91 779 398 
Q 353 888 353 1747 
Q 353 2609 779 3096 
Q 1206 3584 1959 3584 
z
" transform="scale(0.015625)"/>
      <path id="DejaVuSans-69" d="M 603 3500 
L 1178 3500 
L 1178 0 
L 603 0 
L 603 3500 
z
M 603 4863 
L 1178 4863 
L 1178 4134 
L 603 4134 
L 603 4863 
z
" transform="scale(0.015625)"/>
      <path id="DejaVuSans-78" d="M 3513 3500 
L 2247 1797 
L 3578 0 
L 2900 0 
L 1881 1375 
L 863 0 
L 184 0 
L 1544 1831 
L 300 3500 
L 978 3500 
L 1906 2253 
L 2834 3500 
L 3513 3500 
z
" transform="scale(0.015625)"/>
     </defs>
     <use xlink:href="#DejaVuSans-54"/>
     <use xlink:href="#DejaVuSans-65" transform="translate(44.083984 0)"/>
     <use xlink:href="#DejaVuSans-6d" transform="translate(105.607422 0)"/>
     <use xlink:href="#DejaVuSans-70" transform="translate(203.019531 0)"/>
     <use xlink:href="#DejaVuSans-e9" transform="translate(266.496094 0)"/>
     <use xlink:href="#DejaVuSans-72" transform="translate(328.019531 0)"/>
     <use xlink:href="#DejaVuSans-61" transform="translate(369.132812 0)"/>
     <use xlink:href="#DejaVuSans-74" transform="translate(430.412109 0)"/>
     <use xlink:href="#DejaVuSans-75" transform="translate(469.621094 0)"/>
     <use xlink:href="#DejaVuSans-72" transform="translate(533 0)"/>
     <use xlink:href="#DejaVuSans-65" transform="translate(571.863281 0)"/>
     <use xlink:href="#DejaVuSans-20" transform="translate(633.386719 0)"/>
     <use xlink:href="#DejaVuSans-64" transform="translate(665.173828 0)"/>
     <use xlink:href="#DejaVuSans-65" transform="translate(728.650391 0)"/>
     <use xlink:href="#DejaVuSans-73" transform="translate(790.173828 0)"/>
     <use xlink:href="#DejaVuSans-20" transform="translate(842.273438 0)"/>
     <use xlink:href="#DejaVuSans-6e" transform="translate(874.060547 0)"/>
     <use xlink:href="#DejaVuSans-6f" transform="translate(937.439453 0)"/>
     <use xlink:href="#DejaVuSans-65" transform="translate(998.621094 0)"/>
     <use xlink:href="#DejaVuSans-75" transform="translate(1060.144531 0)"/>
     <use xlink:href="#DejaVuSans-64" transform="translate(1123.523438 0)"/>
     <use xlink:href="#DejaVuSans-73" transform="translate(1187 0)"/>
     <use xlink:href="#DejaVuSans-20" transform="translate(1239.099609 0)"/>
     <use xlink:href="#DejaVuSans-74" transform="translate(1270.886719 0)"/>
     <use xlink:href="#DejaVuSans-65" transform="translate(1310.095703 0)"/>
     <use xlink:href="#DejaVuSans-72" transform="translate(1371.619141 0)"/>
     <use xlink:href="#DejaVuSans-6d" transform="translate(1410.982422 0)"/>
     <use xlink:href="#DejaVuSans-69" transform="translate(1508.394531 0)"/>
     <use xlink:href="#DejaVuSans-6e" transform="translate(1536.177734 0)"/>
     <use xlink:href="#DejaVuSans-61" transform="translate(1599.556641 0)"/>
     <use xlink:href="#DejaVuSans-75" transform="translate(1660.835938 0)"/>
     <use xlink:href="#DejaVuSans-78" transform="translate(1724.214844 0)"/>
    </g>
   </g>
   <g id="legend_1">
    <g id="patch_7">
     <path d="M 429.989631 241.04 
L 555.281818 241.04 
Q 557.281818 241.04 557.281818 239.04 
L 557.281818 196.005625 
Q 557.281818 194.005625 555.281818 194.005625 
L 429.989631 194.005625 
Q 427.989631 194.005625 427.989631 196.005625 
L 427.989631 239.04 
Q 427.989631 241.04 429.989631 241.04 
z
" style="fill: #ffffff; opacity: 0.8; stroke: #cccccc; stroke-linejoin: miter"/>
    </g>
    <g id="line2d_28">
     <path d="M 431.989631 202.104062 
L 441.989631 202.104062 
L 451.989631 202.104062 
" style="fill: none; stroke: #1f77b4; stroke-width: 1.5; stroke-linecap: square"/>
    </g>
    <g id="text_16">
     <!-- Noeud terminal 6 -->
     <g transform="translate(459.989631 205.604062) scale(0.1 -0.1)">
      <defs>
       <path id="DejaVuSans-4e" d="M 628 4666 
L 1478 4666 
L 3547 763 
L 3547 4666 
L 4159 4666 
L 4159 0 
L 3309 0 
L 1241 3903 
L 1241 0 
L 628 0 
L 628 4666 
z
" transform="scale(0.015625)"/>
       <path id="DejaVuSans-6c" d="M 603 4863 
L 1178 4863 
L 1178 0 
L 603 0 
L 603 4863 
z
" transform="scale(0.015625)"/>
      </defs>
      <use xlink:href="#DejaVuSans-4e"/>
      <use xlink:href="#DejaVuSans-6f" transform="translate(74.804688 0)"/>
      <use xlink:href="#DejaVuSans-65" transform="translate(135.986328 0)"/>
      <use xlink:href="#DejaVuSans-75" transform="translate(197.509766 0)"/>
      <use xlink:href="#DejaVuSans-64" transform="translate(260.888672 0)"/>
      <use xlink:href="#DejaVuSans-20" transform="translate(324.365234 0)"/>
      <use xlink:href="#DejaVuSans-74" transform="translate(356.152344 0)"/>
      <use xlink:href="#DejaVuSans-65" transform="translate(395.361328 0)"/>
      <use xlink:href="#DejaVuSans-72" transform="translate(456.884766 0)"/>
      <use xlink:href="#DejaVuSans-6d" transform="translate(496.248047 0)"/>
      <use xlink:href="#DejaVuSans-69" transform="translate(593.660156 0)"/>
      <use xlink:href="#DejaVuSans-6e" transform="translate(621.443359 0)"/>
      <use xlink:href="#DejaVuSans-61" transform="translate(684.822266 0)"/>
      <use xlink:href="#DejaVuSans-6c" transform="translate(746.101562 0)"/>
      <use xlink:href="#DejaVuSans-20" transform="translate(773.884766 0)"/>
      <use xlink:href="#DejaVuSans-36" transform="translate(805.671875 0)"/>
     </g>
    </g>
    <g id="line2d_29">
     <path d="M 431.989631 216.782187 
L 441.989631 216.782187 
L 451.989631 216.782187 
" style="fill: none; stroke: #ff7f0e; stroke-width: 1.5; stroke-linecap: square"/>
    </g>
    <g id="text_17">
     <!-- Noeud terminal 8 -->
     <g transform="translate(459.989631 220.282187) scale(0.1 -0.1)">
      <defs>
       <path id="DejaVuSans-38" d="M 2034 2216 
Q 1584 2216 1326 1975 
Q 1069 1734 1069 1313 
Q 1069 891 1326 650 
Q 1584 409 2034 409 
Q 2484 409 2743 651 
Q 3003 894 3003 1313 
Q 3003 1734 2745 1975 
Q 2488 2216 2034 2216 
z
M 1403 2484 
Q 997 2584 770 2862 
Q 544 3141 544 3541 
Q 544 4100 942 4425 
Q 1341 4750 2034 4750 
Q 2731 4750 3128 4425 
Q 3525 4100 3525 3541 
Q 3525 3141 3298 2862 
Q 3072 2584 2669 2484 
Q 3125 2378 3379 2068 
Q 3634 1759 3634 1313 
Q 3634 634 3220 271 
Q 2806 -91 2034 -91 
Q 1263 -91 848 271 
Q 434 634 434 1313 
Q 434 1759 690 2068 
Q 947 2378 1403 2484 
z
M 1172 3481 
Q 1172 3119 1398 2916 
Q 1625 2713 2034 2713 
Q 2441 2713 2670 2916 
Q 2900 3119 2900 3481 
Q 2900 3844 2670 4047 
Q 2441 4250 2034 4250 
Q 1625 4250 1398 4047 
Q 1172 3844 1172 3481 
z
" transform="scale(0.015625)"/>
      </defs>
      <use xlink:href="#DejaVuSans-4e"/>
      <use xlink:href="#DejaVuSans-6f" transform="translate(74.804688 0)"/>
      <use xlink:href="#DejaVuSans-65" transform="translate(135.986328 0)"/>
      <use xlink:href="#DejaVuSans-75" transform="translate(197.509766 0)"/>
      <use xlink:href="#DejaVuSans-64" transform="translate(260.888672 0)"/>
      <use xlink:href="#DejaVuSans-20" transform="translate(324.365234 0)"/>
      <use xlink:href="#DejaVuSans-74" transform="translate(356.152344 0)"/>
      <use xlink:href="#DejaVuSans-65" transform="translate(395.361328 0)"/>
      <use xlink:href="#DejaVuSans-72" transform="translate(456.884766 0)"/>
      <use xlink:href="#DejaVuSans-6d" transform="translate(496.248047 0)"/>
      <use xlink:href="#DejaVuSans-69" transform="translate(593.660156 0)"/>
      <use xlink:href="#DejaVuSans-6e" transform="translate(621.443359 0)"/>
      <use xlink:href="#DejaVuSans-61" transform="translate(684.822266 0)"/>
      <use xlink:href="#DejaVuSans-6c" transform="translate(746.101562 0)"/>
      <use xlink:href="#DejaVuSans-20" transform="translate(773.884766 0)"/>
      <use xlink:href="#DejaVuSans-38" transform="translate(805.671875 0)"/>
     </g>
    </g>
    <g id="line2d_30">
     <path d="M 431.989631 231.460312 
L 441.989631 231.460312 
L 451.989631 231.460312 
" style="fill: none; stroke: #2ca02c; stroke-width: 1.5; stroke-linecap: square"/>
    </g>
    <g id="text_18">
     <!-- Noeud terminal 11 -->
     <g transform="translate(459.989631 234.960312) scale(0.1 -0.1)">
      <use xlink:href="#DejaVuSans-4e"/>
      <use xlink:href="#DejaVuSans-6f" transform="translate(74.804688 0)"/>
      <use xlink:href="#DejaVuSans-65" transform="translate(135.986328 0)"/>
      <use xlink:href="#DejaVuSans-75" transform="translate(197.509766 0)"/>
      <use xlink:href="#DejaVuSans-64" transform="translate(260.888672 0)"/>
      <use xlink:href="#DejaVuSans-20" transform="translate(324.365234 0)"/>
      <use xlink:href="#DejaVuSans-74" transform="translate(356.152344 0)"/>
      <use xlink:href="#DejaVuSans-65" transform="translate(395.361328 0)"/>
      <use xlink:href="#DejaVuSans-72" transform="translate(456.884766 0)"/>
      <use xlink:href="#DejaVuSans-6d" transform="translate(496.248047 0)"/>
      <use xlink:href="#DejaVuSans-69" transform="translate(593.660156 0)"/>
      <use xlink:href="#DejaVuSans-6e" transform="translate(621.443359 0)"/>
      <use xlink:href="#DejaVuSans-61" transform="translate(684.822266 0)"/>
      <use xlink:href="#DejaVuSans-6c" transform="translate(746.101562 0)"/>
      <use xlink:href="#DejaVuSans-20" transform="translate(773.884766 0)"/>
      <use xlink:href="#DejaVuSans-31" transform="translate(805.671875 0)"/>
      <use xlink:href="#DejaVuSans-31" transform="translate(869.294922 0)"/>
     </g>
    </g>
   </g>
  </g>
 </g>
 <defs>
  <clipPath id="pff6e2ff010">
   <rect x="44.93" y="27.24" width="517.351818" height="218.8"/>
  </clipPath>
 </defs>
</svg>
